<?xml version="1.0" encoding="UTF-8"?>
<svg id="Capa_2" data-name="Capa 2" xmlns="http://www.w3.org/2000/svg" viewBox="0 0 925.61 103.72">
  <defs>
    <style>
      .cls-1 {
        fill: #4f4f4f;
      }

      .cls-1, .cls-2, .cls-3, .cls-4, .cls-5, .cls-6, .cls-7, .cls-8, .cls-9 {
        opacity: .07;
      }

      .cls-2, .cls-10 {
        fill: #4c4c4c;
      }

      .cls-3 {
        fill: #4e4d56;
      }

      .cls-4 {
        stroke: #4f4d5e;
      }

      .cls-4, .cls-6, .cls-11, .cls-7, .cls-8, .cls-9 {
        stroke-miterlimit: 10;
      }

      .cls-4, .cls-6, .cls-7, .cls-8 {
        fill: none;
      }

      .cls-12 {
        fill: #a67c52;
      }

      .cls-13 {
        fill: #745131;
      }

      .cls-6 {
        stroke: #4b4a51;
      }

      .cls-11 {
        fill: #603813;
        opacity: .92;
        stroke: #42210b;
      }

      .cls-7 {
        stroke: #494949;
      }

      .cls-8 {
        stroke: #504f56;
      }

      .cls-9 {
        fill: #3c3b44;
        stroke: #353342;
      }

      .cls-14 {
        opacity: .79;
      }
    </style>
  </defs>
  <g id="Capa_1-2" data-name="Capa 1">
    <g class="cls-14">
      <rect class="cls-12" x="2.29" y="17.99" width="921.21" height="82.31" rx="25.28" ry="25.28"/>
      <g>
        <path class="cls-13" d="m895.93,97.5c2.9.04,1.86-.44,2.29-.53-4.85.11-2.17.65-2.29.53Z"/>
        <polygon class="cls-13" points="848.08 98.59 848.92 98.4 841.87 98.88 848.08 98.59"/>
        <path class="cls-13" d="m803.32,98.58c4.23.82,16.22-.13,24.19.16l1.31.19,3.6-.66c-9.69.1-22.28.54-29.1.31Z"/>
        <path class="cls-13" d="m779.46,96.81c1.47.32-5.16.27,5.56.1-.54-.04-.69-.06-1.01-.08-.97,0-2.29,0-4.56-.02Z"/>
        <path class="cls-13" d="m784.02,96.83c4.71-.02-3.08-.27,0,0h0Z"/>
        <path class="cls-13" d="m762.25,97.01l6.21-.29c-1.3-.19-6.82-.23-4.77-.37-6.37.16-5.06.34-1.44.65Z"/>
        <path class="cls-13" d="m756.37,97.61l3.22-.12c-.56-.08-1.41-.11-3.22.12Z"/>
        <path class="cls-13" d="m766.41,97.23l-6.82.25c.9.13.99.4,3.13-.09-.56.24.79,0,3.69-.16Z"/>
        <path class="cls-13" d="m770.27,97.36c3.48.18,7.98.29,1.75.57,11.88-.11,10.13-.69-1.75-.57Z"/>
        <path class="cls-13" d="m801.04,99.43l4.66.24,4.03-.28c-2.01.14-8.97-.22-8.68.03Z"/>
        <path class="cls-13" d="m723.58,96.58c-.39.17,2.09.47,2.55.69l4.59-.2c-2.36-.12-6.82-.23-7.14-.49Z"/>
        <path class="cls-13" d="m726.13,97.27l-6.86.3c6.13.04,7.25-.11,6.86-.3Z"/>
        <polygon class="cls-13" points="755.26 98.52 766.53 97.89 753.09 98.53 755.26 98.52"/>
        <polygon class="cls-13" points="697.38 96.56 701.27 96.16 694.34 96.77 697.38 96.56"/>
        <path class="cls-13" d="m680,96.63c2.88-.33-3.95-.57-.9-.77-4.72.06-8.75.35-12.38.61,3.86-.14,7.97-.11,13.29.17Z"/>
        <path class="cls-13" d="m660.62,96.84c1.93-.08,3.92-.22,6.1-.38-2.05.08-4.06.19-6.1.38Z"/>
        <path class="cls-13" d="m707.59,97.49c-.53-.11-1.55-.38-5.4-.5l2.7.49c.82,0,1.76,0,2.7,0Z"/>
        <path class="cls-13" d="m704.98,97.5l-.09-.02c-2.93-.01-4.96-.02-5.83-.03.75,0,2.53.02,5.92.04Z"/>
        <path class="cls-13" d="m708.27,97.49c-.25,0-.43,0-.68,0,.26.05.42.06.68,0Z"/>
        <path class="cls-13" d="m737.28,98.08c-4.03.27-12.43.57-4.3.99,2.89-.34-1.76-.58,4.3-.99Z"/>
        <path class="cls-13" d="m711.62,98.1l7.29.11c-.14-.13-1.46-.32.54-.46l-7.83.34Z"/>
        <polygon class="cls-13" points="708.05 98.26 711.62 98.1 708.92 98.06 708.05 98.26"/>
        <path class="cls-13" d="m673.1,97.3c-3.15.21-6.59.23-10.48.27,4.17.1,8.48.15,12.57.15.58-.15,2.38-.43-2.09-.41Z"/>
        <path class="cls-13" d="m688.59,97.44c-.22,0-.5.02-.7.03.43.04.78.05.7-.03Z"/>
        <path class="cls-13" d="m624.33,97.57c.21.03.4.06.61.09.05-.03.08-.06.14-.09h-.76Z"/>
        <path class="cls-13" d="m675.89,97.81c3.13.1,5.01-.03,6.79-.18-2.34.05-4.83.08-7.49.08-.26.07-.31.12.7.09Z"/>
        <path class="cls-13" d="m649.94,97.07c1.63.1,3.48.19,5.43.27-1.6-.16-4.85-.4-5.43-.27Z"/>
        <path class="cls-13" d="m686.84,97.33c.16,0,.3-.01.47-.02-1.03-.1-.9-.05-.47.02Z"/>
        <path class="cls-13" d="m686.84,97.33c-1.61.07-2.88.19-4.15.3,1.91-.04,3.68-.09,5.21-.16-.39-.03-.78-.09-1.06-.14Z"/>
        <path class="cls-13" d="m612.73,100.72c.55-.46,8.79-.88,15.9-.39,7-.34,2.42-1.84-3.69-2.68-.22.2-.22.38-7.42.65,2.52.25,15.98.58,9.9.99-9.54.23-7.82-.16-12.45-.4,3.94.57-12.14.83-10.06,1.66l8.36-.29c.16.13-2.88.34-.55.46Z"/>
        <path class="cls-13" d="m638.67,97.7l2.96-.06c-3.38-.08-5.8-.26-10.25-.62-4.93.22-5.95.39-6.29.54l14.59.06-1.01.07Z"/>
        <path class="cls-13" d="m654.93,97.64c-2.31.5-9.43.71-5.07,1.24,8.7-.03,6.09-.41,11.29-.63-14.03.12,4.03-.28-6.11-.56,2.76-.08,5.24-.11,7.58-.13-2.53-.06-4.96-.13-7.26-.23.13.01.22.02.32.03h.07s-.01,0-.01,0c.6.06.8.1.12.06-.05,0-.22,0-.29.01-.09.07-.35.13-.63.19-4.06-.1-.64-.13.63-.19.05-.03.16-.05.17-.07-.01,0-.03,0-.05,0l-14.06.27c2.97.07,6.7.06,13.3,0Z"/>
        <path class="cls-13" d="m725.48,100.13c-.44-.04-.42-.08-.45-.12-.91.06-1.25.1.45.12Z"/>
        <path class="cls-13" d="m719.69,99.83c1.02-.07,1.87-.27,5.2-.22,2.88.15-.01.24.14.4,2-.13,7.01-.36.73-.6l-.99.07c-5.66-.17-12.93-.79-11.94-.86,1.65.45,3.11.76,6.87,1.2Z"/>
        <path class="cls-13" d="m686.91,98.86l-11.71.24,5.96.43-.3-.26c6.66.1,5.22-.22,6.05-.41Z"/>
        <polygon class="cls-13" points="622.99 97.32 624.54 96.8 617.78 97.54 622.99 97.32"/>
        <polygon class="cls-13" points="607.78 97.38 608.34 96.93 604.32 97.2 607.78 97.38"/>
        <path class="cls-13" d="m194.64,15.26l3.44-.13c-1.63.04-2.67.08-3.44.13Z"/>
        <path class="cls-13" d="m169.74,15.23l-.61.22c1.15-.12,1.63-.21.61-.22Z"/>
        <path class="cls-13" d="m234.17,97.43c-5.01-.42-10.61-1.08-10-.57l1.54.5c3.5-.09,6.18-.03,8.46.07Z"/>
        <path class="cls-13" d="m2.18,65.45c-.05.48-.1.97-.15,1.47.17,1.22.33,2.36.48,3.38-.1-1.46-.21-3.11-.33-4.85Z"/>
        <path class="cls-13" d="m.11,61.92l.32-6.6c-.11,1.48-.22,3.61-.32,6.6Z"/>
        <path class="cls-13" d="m330.65,14.73l4.01-.51c-6.28,0-3.52.26-4.01.51Z"/>
        <path class="cls-13" d="m451.98,97.57c-4.32-.2-7.76-.28-10.79-.3,5.21.29,9.41.72,10.79.3Z"/>
        <path class="cls-13" d="m184.85,20.55c2.1-.09,3-.19,2.94-.3-2.17.09-3.39.18-2.94.3Z"/>
        <path class="cls-13" d="m428.7,97.27c.76.04,1.51.08,2.28.12,3.16-.08,6.34-.15,10.2-.12-3.85-.21-8.25-.34-12.49,0Z"/>
        <path class="cls-13" d="m823.89,15.14c.36.02.79.04,1.12.06.11-.07-.39-.07-1.12-.06Z"/>
        <path class="cls-13" d="m921.32,72.94c-.03-1.41-.03-3.72-.04-5.9-.03,1.06-.03,2.84.04,5.9Z"/>
        <path class="cls-13" d="m546.57,97.17c3.23-.03.51-.05,0,0h0Z"/>
        <path class="cls-13" d="m562.26,99.14c-.69.06-1.21.13-1.29.24.27-.12.72-.2,1.29-.24Z"/>
        <path class="cls-13" d="m396.57,100.37c-.09,0-.17,0-.28,0,.96.1.79.08.28,0Z"/>
        <path class="cls-13" d="m551.43,97.39c-1.21-.06-2.61-.11-4.13-.15.67.04,1.92.09,4.13.15Z"/>
        <path class="cls-13" d="m550.77,97.16c1.11.02,1.99.03,2.82.05.41-.08.05-.14-2.82-.05Z"/>
        <path class="cls-13" d="m542.08,97.19c1.85,0,3.57.02,5.22.05-.63-.03-.9-.06-.73-.08-.95,0-2.28.01-4.49.03Z"/>
        <path class="cls-13" d="m559.61,16.48c.21.01.46.03.69.05,3.25-.21,1.83-.17-.69-.05Z"/>
        <path class="cls-13" d="m150.2,102.62c.15,0,.23-.01.37-.02-.15,0-.34-.01-.48-.02l.11.04Z"/>
        <path class="cls-13" d="m138.61,102.99c4.93-.62,7.74-.54,11.48-.41l-3.83-1.44-7.65,1.85Z"/>
        <path class="cls-13" d="m254.27,15.12l-8.14-.45c9.82-.74,16.93-.48,9.29-1.11-1.15,1.56-31.63.16-32.76,1.72l-5.36-.33c1.54.01,1.78-.08,3.3-.06-10.43-.75-7.75,1.13-21.19.91-4.68-.12-7.95-.35-4.76-.53l-10.44.39c-3.04-.03-2.29-.3.73-.27l-15.92.12.12-.05c-2.27.24-7.42.62-9.93.78-4.04-.22,2.03-.17.99-.36l-8.82.38c-3.59-.41,3.72-.8,9.8-.74-8.23-1.56-7.31.39-25.08-.52l8.32-.2c-5.37-.89-11.86-.56-21.27-1.12,2.23.29,18.84,1.39,9.27,1.78-2.7-.12-6.25-.17-11.41.14-.05-.56-5.09-.42-11.39-.39l.43-.74c-6.82.21-6.28.59-10.29.92-7.6-.07-9.17-.64-10.96-1.12-12.17-.12,8.4.91-6,1.05-10.12-.28-17.23.02-29.33.46-7.08-.25,1.24-.45-1.3-.66l-6.28.59c-1.54-.01-1.04-.19-.79-.29-5.29.23-.44.74-8.75.93-.56.2-1.91.23-3.77.17-.93-.04-2-.09-3.16-.14-.58-.03-1.18-.06-1.81-.1-.67,0-1.35,0-2.06,0-2.82.07-5.94.63-8.83,1.82-2.89,1.17-5.47,3.02-7.36,5.04-2.17,1.69.68-1.22-.13-.88-1.43,1.33-2.48,2.63-3.35,3.78-.41.59-.79,1.15-1.14,1.66-.32.53-.59,1.05-.86,1.51-.56.93-.88,1.8-1.23,2.57-.36.76-.56,1.5-.79,2.2-.11.35-.22.7-.32,1.04-.09.35-.15.71-.23,1.08-.13.74-.35,1.5-.4,2.4-.07.89-.22,1.88-.16,3.03.01.57.01,1.2.04,1.85.04.63.09,1.3.14,2.02l-.48,9.88c.55-7.26,1.21,2.02,1.74,10.14.27-2.58.5-4.78.61-6.25l.39,12.97c-.12,1.57-.37.26-.68-1.86.07.88.13,1.72.18,2.38-.27,4.64-.69,2.23-1.11-1.09.15-1.58.31-3.15.45-4.67-.45-3.2-.94-6.2-1.37-5.53.09.84.16,2.47.2,4.25-.12-.84-.23-1.37-.3-.98-.08.44.09,1.79.27,3.91l-.82,2.95.33.72c-.12,2.72-.16,5.92.45,8.92.57,3.03,1.72,5.95,3.3,8.62,1.95,2.7,4.31,4.93,7,6.7,2.68,1.77,5.7,3.1,9.06,3.85.85.14,1.69.36,2.57.45.88.06,1.77.21,2.69.2,1.85.03,3.68-.09,5.63-.18,3.89-.17,8.16-.31,12.98-.4-4.78.6-1.03.98-1.29,1.69-2.63-.38-6.36-.3-10.68-.14-2.18.06-4.39.23-7.03.11-2.55-.23-5.21-.74-7.69-1.82,2.6,1.07,3.69,1.3,3.86,1.49.19.16-.49.11-1.22-.02.8.16,1.59.38,2.39.49l2.42.28,2.43.04c.8,0,1.5-.05,2.26-.07l8.9-.34c-.4.58,3.78.44,8.43.68-3.52-1.15,13.27-.77,20.52-1.12.45.39-1.29.78-10.13.69,9.75.87,12.6-1.35,22.17-.62-2.16,0-3.32-.05-4.17.15,5.04-.34,17.36-.07,14.47.26h-2.15c14.33.14,43.62.02,45.75-.96.14.13-1.88,1.18-2.74,1.38l25.56-3.29c-2.25.84,6.39,2.84-5.49,3.32,3.41.12,7.63.26,14.82-.04-2.33-.12-5.8-1.21-2.62-1.29,8.73.94,6.06.5,16.82,1.3-3.49-.18.39-1.5,5.9-1.46-.86.2.46,1.3-1.56,1.44l13.72-1.29c-3.42.23-.6,1.1,2.47,1.46-1.42-.25,11.86.02,15.52-.1l-5.82-.3c15.49.2,15.3-1.82,30.67-1.75-1.86.27-4.6,1.64,3.22,1.81,3.58-.66,15.86-3.19,29.46-3.7l2.61.38,10.43-.43c-6.5,1-24.73,3.09-34.68,3.91,5.8.3,1.61.45,10.3.41,3.07.36-4.73.54-7.29.56l20.21.23c-.9-.77,15.46-.78,14.69-1.42l-21.95.8c-.89-.77,12.69-2.19,27.02-2.06,3.64.31-2.72,1.38-2.43,1.63,1.86-.27,13.59-.51,14.91-.32l-6.08.41c7.97.29,13.01-1.02,22.59-.29,3.31.05,9.87,1,10.45.54-5.39-.88-6.45-3.61-2.85-4.27,1.16.06,17.36.84,21.14,1.28,5.45.69-8.17,1.65-3.54,2.24.2-.21,3.21-.47,4.46-.56,3.47.18-1.44.65,6.11.56,1.26-.78,15.35.07,3.57-.66,7.38-.22,7.85.16,16.51.13-2.76-.51,7.78-1.72,15.18-1.95-.44.2,1.22.46,2.03.58,15.13.07,23.25.43,37.37.43,1.3.19,8.11.42,5.21.76,2.03-.14,3.89-.4,8.25-.42,8.42.68-9.7.11-3.28.92.55-.46,11.26-.63,17.45-.91-1.91-.7-14.32-.14-20.53.15-.03-.97,10.78-1.99,25.53-2.44,11.72-.24,5.08.63,7.12.49,22.02.17,18.76-1.69,37.04-.99,7.25.62.33,1.23,1.94,1.68-9.55.23-14.66-.39-21.13-.37l7.97.29c-3.04.21-9.41.36-12.88.18,6.08.55,37.2.11,54.18.62,3.02-.21,8.23-.42,5.76-.67l-5.37.09c-4.94-.5,10.11-.69,3.31-.92,7.21-.35,15.29-.9,25.44-.62l1.91.7c-.22-.21-6.63-.42-9.49-.2,4.23-.31,15.56.95,20.2.03l-7.11-.49c7.24-.35,16.19-1.1,25.18-.88-4.09-.7-2.07.08-8.47-.74,5.54,1.01-23.01-.04-14.11,1.02-6.56-.95-11.35-.4-19.93-1.21.27.23,3.04.45-4.51.33-.34.07-1.15.15-1.66.2-.23,0-.31-.01-.51-.02.15,0,.26.02.42.03-.33.04-.36.04.16,0,1.8.1,3.26.22,3.85.35-3.75.53-15.76.52-19.82.79-4.48-.11,1.87-.27-.57-.52l-6.07.41c-.6-.52-11.9-.86-1.35-1.16l-9.5-.02c-5.59-.29-13.29-.4-18.03-.19-4.48-.11-11.32.57-7.42.17l-14.9.32-.14-.13c-14.7-.07-30.26.86-47.07-.08-4.95.13-10.06.29-18.34.14l-1.61-.45c-6.35.16-19.08-.45-21.81.02-6.85-1.2-30.84-.26-42.02-.48l-.42.58c-7.69-.03-15.07.13-24.62.37l.59.52c-8.23.42-21.17-.37-34.19-.31.89-.2,4.19-.15,6.53-.03-15.56-1.17-32.82.85-46.93,0-3.52.19-6.06.12-8.53,0,.33,0,.62-.01.87-.03-.36,0-.9,0-1.44,0-1.55-.09-3.15-.18-4.88-.27,1.47.13,2.88.23,4.11.28-2.71.01-6.82.07-10.86.2l-1.72-.55c-.33,0-.59,0-.93.02-3.96-.2-3.18.26-1.07.68-2.03.09-3.89.2-5.33.33-3.21-.89-10.58.3-14.96-.65-2.72.46-20.27.35-22.41,1.33-.14-.13-1.33-.19.85-.2-4.49-.11-8.98-.22-13.02.05l-1.91-.7-9.81.95c-5.96-.43-8.43-.68-2.51-1.22-14.29.83-11.6.31-23.75,1.14l.59-.46c-4.35.02-11.29.63-13.91.25-9.72-.87-48.09-.12-73.04-.92,4.84,1.34-11.6-.6-12.59.44-1.45-.32-4.93-.5-.89-.77-.8.02-1.57.03-2.32.05-.37,0-.74,0-1.11.01-.33-.01-.65-.03-.97-.04-1.27,0-2.44-.23-3.56-.4-2.2-.53-4.12-1.22-5.8-2.15-.44-.19-.83-.47-1.23-.71-.39-.25-.8-.48-1.18-.73-.37-.27-.74-.54-1.1-.81l-.55-.4-.51-.45-1.05-.88c-.34-.31-.66-.65-1-.97-.71-.62-1.3-1.38-2-2.11-.52-1.22,1.84,1.68,1.3.64-.28-.35-.94-.98-1.41-1.79-.26-.39-.52-.79-.73-1.16-.18-.39-.33-.75-.41-1.04-.16-.56.08-.21.46.46.18.34.45.73.74,1.14.29.4.55.82.83,1.16-1.61-2.34-2.43-4.4-3.09-5.99-.25-.82-.54-1.52-.73-2.14-.17-.62-.34-1.15-.5-1.6-.53-1.81-.98-2.34-1.47-2.8.43-6.59.37-9.88-.23-14.64.3-2.29.61-6.12.72,1.96.02-2.27.13-9.22.14-15.65.02-1.58-.04-3.25.05-4.54.02-.68.04-1.33.15-1.93.09-.61.14-1.19.24-1.71.26-1.04.37-1.93.56-2.55.16-.62.23-1.01.16-1.09.15-.3.36-.8.67-1.36.31-.56.56-1.26.96-1.87.38-.62.7-1.28,1.06-1.78.35-.5.63-.92.78-1.16,1.51-1.86,2.89-3.12,4.15-4.07,1.24-.97,2.37-1.61,3.5-2.24.58-.28,1.16-.56,1.77-.85.63-.23,1.3-.48,2.03-.75.74-.23,1.56-.42,2.47-.66.47-.07.95-.15,1.47-.23.26-.04.53-.08.8-.13.28-.03.56-.03.86-.06-.88-.04-1.74.12-2.61.2.88-.35,1.83-.67,2.88-.74,1.03-.14,2.2-.14,3.5-.11,2.6.05,5.71.19,9.75.14l-.23.09c18.52.64,7.99-.31,26.26.42l-.99-.55c1.7-1.19,16.19.7,26.79.25l-3.83-.31c5.79-.41,16.19,1.61,22,1.76,1.27.1-2,.17-3.77.24,15.23.7,1.97-.72,13.32-.89,2.09.39-2.7.99,4.94,1.06,3.8.31,22.15-1.27,32.57-.52-2.3-.3-4.58-.6.69-.83,8.08-.11,21.84,1.13,29.13.19,1.03.08,1.41.16,1.46.24,6.17-.24,20.07-.41,23.79-.92,5.71,1.9,38.39-.93,38.25.83l18.99-.09-.5.18c12.14.12,16.43-.31,20.7-.73,2.81.12.76.28.53.38,17.74.35,19.5.28,34.38-.6l1.55.57c4.03-.33,25.65.89,43.04.23-.17.07-.53.18-1.91.26,19.57-.67,46.86,1.58,54.03-.5l12.92-.51c-16.71-.16,2.49-.9-4.39-1.25,6.57-.12,16.99.63,8.92.73l-1.26-.1c-2.97,1.08,20.77.38,20.32,1.12,32.88-.05,64.94.55,95.74.59l-3.55-.84,10.74.05c2.82.2,3.79.66-3.88.62,4.03.48,12.86-.4,13.07-.58,15.01.34-5.86.98-1.26,1l6.25-.06-1.41-.1c5.07-.34,5.52-.71,14.73-.67,5.83.17,2.99.52,5.29.55,0,.03.18.05.72.06s1.42,0,2.8-.03l13.54.07-5.41-.66c6-.33,12.73.03,6.48-.72,9.17,1.16,50.5.42,56.13.78,8.4-.48,16.7-.48,26.97-.42-2.55-.14-4.08-.88,4.78-.79-3.24,1.54,16.23.67,23.39,1.78-6.4-.74,25.2-.18,15.15-1.23,7.4.13.45.58,6.06.94,17.6-.6,38.79.39,60.55.19.34-.2-3.3-.51,1.36-.81l11.49,1.01c4.3-.1,3.96-1.17,11.81-.47-1.11-.17-2.76-.43.12-.49,21.31.49,43.08.29,64.94.2l4.1-.02c.69,0,1.28.05,1.93.07.32.02.64.02.95.05l.94.14c2.51.35,4.98,1.1,7.23,2.29,2.26,1.16,4.32,2.69,6.11,4.5,1.79,1.81,3.21,3.95,4.29,6.23,1.07,2.28,1.82,4.73,2.05,7.24.12.62.08,1.25.12,1.88.02.62.04,1.25.02,1.95l-.09,4.08c-.13,5.44-.3,10.87-.54,16.28.39-5.86.43-1.96.45,2.52.09-2.91.5.07.77-.51-.14,3-.23,6.08-.41,9.02-.16,2.8-.86,5.54-2.02,8.04-.18,1.51-2.16,5.74-5.47,8.63-3.17,3.04-7.11,4.66-7.84,5.21.42-.17.84-.32,1.26-.5l1.2-.62c.82-.37,1.55-.91,2.31-1.38-1.41,1.11-1.56,1.46-.93,1.36.63-.11,2.07-.63,3.58-1.52.79-.39,1.51-.98,2.27-1.47.74-.52,1.38-1.1,1.99-1.55,1.14-.97,1.91-1.63,1.97-1.23,1.09-1.99,2.39-4.23,3.34-6.95.99-2.67,1.68-5.83,1.82-9.12.31-6.32.56-13.32-.13-20.33.22-3.1.36,2.64.61.98-.24-1.78-.38-3.74-.44-6.25-.03-1.26-.04-2.65-.02-4.23,0-.39,0-.8.01-1.22,0-.43-.03-.9-.04-1.36-.02-.47-.03-.96-.05-1.46-.05-.5-.12-1.01-.19-1.54l.26.94c-.77-5.97-3.26-10.72-6.3-14.35-3.1-3.6-6.76-6.26-10.96-7.89-.53-.2-1.05-.4-1.58-.6-.55-.15-1.1-.3-1.65-.45-1.1-.35-2.26-.45-3.42-.68-.58-.08-1.18-.1-1.78-.14-.59-.04-1.23-.09-1.78-.09-1.14-.02-2.3-.04-3.49-.06-4.78-.07-10.08-.15-16.36-.25l1.86.54c-5.39-.07-6.53-.24-9.05-.38-6.19.83,15.15.05,9.51.96-7.16-1.11-38.04-.02-42.87-1.28-8.3,0,2.43.63-5.86.62l-2.2-.34-2.1.44c-5.44-.07-8.18-.5-8.39-.79,1.32.03,3.75-.08,5.17-.11-7.05-.4-19.89.14-22.31,0l7.97.21c-22.65.32-50.3-.13-72.17.56l1.66.26c-16.71.48-13.38-.28-31.73-.06l.67-.06c-3.67.26-8.57.39-13.59.36,4.63-.3-8.72-.58-2.64-.92-18.12.51-8.96.4-20.93,1.36l-2.76-.43c-4.08.39-4.42.59-13.58.7,7.51-.37-5.85-.65,2.57-1.13-19.22-.93-28.55.94-37.37-.42-8.83,1.18,16.64.66,11.69.91,4.14.39-7.29.88-13.32.76-6.14-.03-10.44-1.51-25.89-1.49,1.54,0,1.64-.08,3.17-.08-5.78-.3-11.33.41-18.42-.08-3.97.71-9.21-.04-10.35.87l14.17-.21c-8.03.24-15.57,1.3-28.8.79,1.03-.18,4.97-.43,7.67-.56-3.87-.27-7.45.18-11.46-.1,1.14-.91,17.22-.2,25.83-.89-4.15-.38-16.28.66-11.96-.33-6.22,1.25-15.22-.16-25.68.8l.69-.55c-1.66.09-5.09.34-8.13.33l5.52-.71c-8.47.6-16.33-.53-24.45-.2,17.01-.02,3.82.66,11.01,1.06-20.98.73-12.06-1.43-35.55-1.17,3.18-.08,11.94.33,6.97.58-4.47-.11-10.38-.32-13.12-.61-15.56.11,2.39.56-4.23.9-5.3-.67-7.64.27-14.46.48l-.05-.55c-17.73-.36-4.7,1.16-20.67.73l6.75-.77-8.32.2,1.72-.63c-9.05.47-11.87.35-20.75.17,2.06.39-1.16,1.01-9.01,1.02-5.36-.33,3-.53-8.13-.45,2.51-.35,5.27-.78,10.11-.27.5-.18,2.48-.35,2.99-.53-5.77-.38-14.5-.09-18.53-.08,1.55.02,3.41.05,4.36.13l-16.14.77c-2.54-.21-.53-.38,1.47-.54-3.27.06-5.53.32-10.34.36,1.24-.45.95-.92,7.75-1.13l-15.38.5c-1.03-.2-7.89-.54-5.9-.7-8.53-.27-20.91.88-32.22.53-.59.09-1.77.17-4.17.24-10.62-.1-20.03-.66-32.63-.04l-7.14-.81c-9.86.18,9.67,1.02-6.75,1.32-11.62.26-4.34-.69-8.42-.91-5.78.41-15.83,1.24-26.51.58,3.54-.15,6.31-.03,9.61-.09Zm-121.61.36c2.36-.12,7.05-.48,8.78-.15-2.68.64-4.76.33-8.78.15ZM2.55,83.59c-.1-.21-.2-.44-.3-.67-.08-.25-.15-.51-.24-.79-.15-.55-.32-1.16-.46-1.82-.09-.67-.17-1.38-.25-2.12-.09-.74-.02-1.52-.03-2.32.04.58.07,1.17.11,1.79.09.61.18,1.24.27,1.88.07.65.22,1.3.38,1.98.16.67.27,1.38.52,2.07Zm508.66,14.03c-.1.01-.17.02-.25.03-5.26-.22-3.39-.13.25-.03Zm10.92.24c1.1-.08,1.02-.15.56-.23-.76.14-3.21.15-6,.11.78.15,2.19.25,5.45.12Zm71.95-77.64l-2.12-.14c4.8-.16,3.45-.02,2.12.14Z"/>
        <path class="cls-13" d="m.35,62.4c.09-.67.2-.85.3-1.01-.09-.93-.2-.95-.3,1.01Z"/>
        <path class="cls-13" d="m329.9,14.82h.37c.2-.03.31-.06.37-.09l-.74.09Z"/>
        <path class="cls-13" d="m353.04,102.56c-2.25-.08-3.5-.18-4.33-.29-.12.14.9.25,4.33.29Z"/>
        <path class="cls-13" d="m579.97,96.91l-6.99.14c3.38-.03,4.59.09,6.3.18-.16-.13-1.49-.32.7-.33Z"/>
        <path class="cls-13" d="m640.65,100.35c1.02-.07,2.17,0,3.17-.08l-.28-.26c-4.35.02-7.4.22-2.9.33Z"/>
        <path class="cls-13" d="m586.44,98.76c.55.47,4.94.31,9.84.22h-.87c1.44-.65-3.78-.44-8.97-.22Z"/>
        <path class="cls-13" d="m597.41,98.96c1.51-.02,3.05-.03,4.53-.01.57-.26-1.84-.05-4.53.01Z"/>
        <path class="cls-13" d="m535.97,97.55c2.32.12,1.46-.6,2.77-.41,2.59-.59-15.49.72-2.77.41Z"/>
        <polygon class="cls-13" points="590.4 100.3 588.65 99.72 585.9 100.18 590.4 100.3"/>
        <path class="cls-13" d="m551.73,99.87l7.83.16c-.12-.1.88-.15,2.1-.2-4.82-.02-10.11-.13-9.92.04Z"/>
        <path class="cls-13" d="m561.65,99.84c2.51.01,4.9,0,6.3-.1-1.36,0-4.28.03-6.3.1Z"/>
        <polygon class="cls-13" points="579.71 100.47 577.39 100.35 571.87 100.31 579.71 100.47"/>
        <path class="cls-13" d="m467.6,99.76l-8.54.16c-.87.2,1.46.32,4.64.24,2.04-.14,5.21-.21,3.9-.4Z"/>
        <path class="cls-13" d="m493.44,101.34c-2.31-.12-2.47-.25-3.77-.44l-.26.71,4.03-.28Z"/>
        <path class="cls-13" d="m468.53,101.51c-.85.2-12.4.57-1.57.52.87-.2,9.42-.36,1.57-.52Z"/>
        <polygon class="cls-13" points="339.83 100.6 342.01 100.59 341.69 99.42 339.83 100.6"/>
        <path class="cls-13" d="m226.4,103.4c10.12.28,2.4-.72,11.55-.37,2.38-.28-7.48-.29-5.04-.53-6.11.29-9.32.13-6.51.9Z"/>
        <path class="cls-13" d="m232.91,102.51c.98-.06,2.01-.11,3.12-.18-1.77.07-2.6.13-3.12.18Z"/>
        <path class="cls-13" d="m912.85,92.04c-.35.33-.78.57-1.17.85-.4.26-.78.57-1.2.79-.85.45-1.66.96-2.56,1.3l.88-.31c.29-.12.56-.26.84-.39.56-.28,1.15-.5,1.68-.85.51-.47,1.07-.86,1.53-1.38Z"/>
        <path class="cls-13" d="m903.21,97.8c-.51-.11-1.02-.33-1.51-.5-1.11.46-2.28.67-3.48.97.68-.07,1.67-.1,2.62-.2.94-.16,1.85-.22,2.37-.28Z"/>
        <path class="cls-13" d="m114.58,13.97l-.5.18c1.01.19,2.53.21,5.58.24l-5.09-.42Z"/>
        <polygon class="cls-13" points="202.84 14.53 201.32 14.51 204.16 15.19 202.84 14.53"/>
        <path class="cls-13" d="m276.93,13.67c-3.02-.03-6.58.12-9.61.09,6.59-.12,10.43.75,9.61-.09Z"/>
      </g>
    </g>
    <rect class="cls-11" x="712.24" y=".5" width="198.38" height="32.94" rx="7.53" ry="7.53"/>
    <path class="cls-8" d="m59.75,23.46c-2.85.05-10.27.23-18.28,3.21-2.35.87-4.1,1.74-5.21,2.3-2.37,1.19-7.82,3.97-12.8,8.92-5.77,5.74-7.93,11.46-8.77,14.29-2.86,9.58.14,17.25.91,19.1.82,1.95,4.57,10.32,15.54,17.07,8.98,5.53,18.09,7.08,21.21,7.53,2.51.36,12.15,1.57,23.67-1.25,8.65-2.12,14.25-5.51,16-6.62,2.51-1.59,8.78-5.91,12.98-13.24.94-1.64,4.33-7.89,3.93-16.38-.12-2.59-.45-7.98-4.2-14.08-5.35-8.68-14.13-13.1-17.55-14.77-4.06-1.99-14.15-6.29-27.42-6.06Z"/>
    <path class="cls-6" d="m23.17,47.85c.64-1.14,2.88-4.9,7.61-8.71,1.36-1.1,5.94-4.64,13.44-7.18,3.22-1.09,12.45-4.11,24.31-2.51,2.6.35,16.06,2.37,25.32,11.92,1.2,1.24,7.05,7.47,7.77,16.8.74,9.6-4.42,16.47-5.48,17.84-6.4,8.22-15.94,11.61-19.1,12.61-15.29,4.85-29.01.67-31.53-.14-2.43-.78-14.82-4.97-21.39-15.75-.75-1.22-7.63-12.98-.93-24.88Z"/>
    <path class="cls-4" d="m31.69,54.75c1.1-3.93,3.04-6.48,3.47-7.04,1.07-1.37,2.08-2.31,2.38-2.58,2.7-2.46,5.53-3.77,7.68-4.74,1.63-.74,4.48-2.01,8.59-2.86,2.7-.56,8.14-1.64,14.72-.35,4.02.79,6.72,2.13,8.87,3.21,2.68,1.33,6.5,3.28,9.41,6.9,1.99,2.47,2.63,4.58,3.47,7.32,1.04,3.38,2.03,6.61.91,10.66-.94,3.42-2.93,5.77-4.2,7.25-3.74,4.33-8.28,6.54-9.51,7.11-3.77,1.76-7.09,2.4-9.14,2.79-3.07.58-8.08,1.47-14.26.42-4.63-.79-7.8-2.32-9.32-3.07-5.35-2.63-8.23-5.83-9.23-7.04-.99-1.18-2.98-3.82-4.02-7.53-1.35-4.78-.34-8.57.18-10.45Z"/>
    <polygon class="cls-2" points="61.12 60.18 54.49 64.93 61.12 100.75 61.12 60.18"/>
    <polygon class="cls-2" points="61.12 17.54 61.12 60.18 68.43 54.61 61.12 17.54"/>
    <polygon class="cls-2" points="5.55 60.18 54.49 54.75 61.12 60.18 5.55 60.18"/>
    <polygon class="cls-2" points="116.15 60.18 61.12 60.18 68.43 64.93 116.15 60.18"/>
    <polygon class="cls-2" points="28.84 84.27 48.4 64.34 54.39 65.04 28.84 84.27"/>
    <polygon class="cls-2" points="50.61 71.9 46.86 86.12 56.42 75.34 56.04 73.29 51.64 77.19 53.63 70.37 50.61 71.9"/>
    <polygon class="cls-2" points="44.72 55.84 39.88 53.22 46.86 54.53 49.01 55.36 45.4 52.38 26.02 48.9 41.72 55.84 44.72 55.84"/>
    <polygon class="cls-2" points="54.31 54.41 55.4 49.88 28.95 35.38 54.31 54.41"/>
    <polygon class="cls-2" points="46.77 32.96 56.28 44.74 55.8 47.19 52.51 43.22 53.62 48.9 50.42 47.14 46.77 32.96"/>
    <polygon class="cls-2" points="68.72 54.59 93.34 35.52 77.44 51.93 74.1 55.23 68.72 54.59"/>
    <polygon class="cls-2" points="74.92 54.42 83.33 52.98 78.17 55.71 81.18 56.06 96.68 48.9 76.99 52.37 74.92 54.42"/>
    <polygon class="cls-2" points="66.94 47.04 70.33 42.96 68.07 50.28 71.91 48.03 75.56 32.96 66.38 44.23 66.94 47.04"/>
    <polygon class="cls-2" points="68.43 64.93 93.02 84.16 67.62 69.88 68.43 64.93"/>
    <polygon class="cls-2" points="68.62 70.78 70.54 76.74 66.78 72.8 66.22 75.73 75.56 86.74 71.75 72.2 68.62 70.78"/>
    <polygon class="cls-2" points="74.15 64.93 77.39 68.23 96.22 71.13 81.37 63.64 78.03 64.23 84.34 67.39 74.15 64.93"/>
    <polygon class="cls-3" points="28.95 44.02 23.17 38.18 20.18 41.62 28.95 44.02"/>
    <polygon class="cls-3" points="15.53 49.74 23.92 53.01 14.24 53.85 15.53 49.74"/>
    <line class="cls-9" x1="39.88" y1="49.25" x2="33.88" y2="46.46"/>
    <path class="cls-9" d="m31.6,45.07c.4-.33,1.11-.31,1.58-.1.6.28.91.97.48,1.41-.4.41-1.25.43-1.78.13-.59-.33-.76-1.05-.27-1.45Z"/>
    <polygon class="cls-3" points="15.15 70.12 24.29 66.6 14.24 65.9 15.15 70.12"/>
    <polygon class="cls-3" points="19.85 78.37 29.31 75.42 22.87 81.81 19.85 78.37"/>
    <polygon class="cls-3" points="33 89.27 40.69 83.95 37.65 91.61 33 89.27"/>
    <polygon class="cls-3" points="47.22 94.74 52.58 87.61 53.21 95.95 47.22 94.74"/>
    <polygon class="cls-3" points="69.58 94.83 69.99 87.72 75.19 94.74 69.58 95.65 69.58 94.83"/>
    <polygon class="cls-3" points="84.76 91.55 81.23 83.92 89.97 89.13 84.76 91.55"/>
    <polygon class="cls-3" points="99.35 81.86 92.29 75.73 102.45 78.24 99.35 81.86"/>
    <polygon class="cls-3" points="108.22 65.84 98 65.84 107.23 69.5 108.22 65.84"/>
    <polygon class="cls-3" points="108.18 53.7 97.45 53.22 107.05 49.22 108.18 53.7"/>
    <polygon class="cls-3" points="102.51 41.31 92.43 44.06 99.22 37.68 102.51 41.31"/>
    <polygon class="cls-3" points="89.02 30.66 81.6 35.73 84.34 28.49 89.02 30.66"/>
    <polygon class="cls-3" points="75.78 25.36 70.03 32.17 69.47 24.27 75.78 25.36"/>
    <polygon class="cls-3" points="53.07 23.9 52.71 31.48 46.86 25.21 53.07 23.9"/>
    <polygon class="cls-3" points="37.83 28.2 40.37 35.1 32.8 31.07 37.83 28.2"/>
    <polygon class="cls-1" points="40.69 63.64 26.02 70.78 44.8 68.01 46.86 65.63 38.27 66.81 44.78 63.99 41.2 63.64 40.69 63.64"/>
    <line class="cls-9" x1="36.44" y1="55.31" x2="29.77" y2="54.34"/>
    <line class="cls-9" x1="46.86" y1="42.98" x2="43.39" y2="38.86"/>
    <line class="cls-9" x1="55.4" y1="40.19" x2="53.72" y2="35.73"/>
    <line class="cls-7" x1="28.95" y1="35.38" x2="49.01" y2="55.36"/>
    <line class="cls-7" x1="5.55" y1="60.18" x2="54.49" y2="64.93"/>
    <line class="cls-7" x1="28.95" y1="84.16" x2="55.29" y2="69.25"/>
    <line class="cls-7" x1="68.43" y1="64.93" x2="61.12" y2="100.75"/>
    <line class="cls-7" x1="73.64" y1="64.41" x2="93.02" y2="84.16"/>
    <line class="cls-7" x1="68.62" y1="54.58" x2="116.15" y2="60.18"/>
    <line class="cls-7" x1="67.62" y1="50.52" x2="93.34" y2="35.52"/>
    <line class="cls-7" x1="61.12" y1="17.54" x2="54.49" y2="54.75"/>
    <line class="cls-9" x1="29.77" y1="65.63" x2="36.44" y2="64.41"/>
    <line class="cls-9" x1="33.86" y1="73.85" x2="38.98" y2="70.78"/>
    <line class="cls-9" x1="47.5" y1="76.74" x2="43.75" y2="81.31"/>
    <line class="cls-9" x1="54.56" y1="79.56" x2="53.72" y2="84.58"/>
    <line class="cls-9" x1="67.62" y1="79.56" x2="68.62" y2="84.58"/>
    <line class="cls-9" x1="75.11" y1="77.13" x2="79.13" y2="81.45"/>
    <line class="cls-9" x1="83.33" y1="70.78" x2="88.63" y2="73.85"/>
    <line class="cls-9" x1="86.62" y1="64.23" x2="92.29" y2="65.63"/>
    <line class="cls-9" x1="86.62" y1="54.82" x2="93.02" y2="53.85"/>
    <line class="cls-9" x1="83.33" y1="48.9" x2="88.63" y2="45.76"/>
    <line class="cls-9" x1="75.56" y1="42.56" x2="78.67" y2="38.86"/>
    <line class="cls-9" x1="67.62" y1="40.19" x2="69.39" y2="35.1"/>
    <path class="cls-9" d="m27.86,65.21c.4-.33,1.11-.31,1.58-.1.6.28.91.97.48,1.41-.4.41-1.25.43-1.78.13-.59-.33-.76-1.05-.27-1.45Z"/>
    <path class="cls-9" d="m27.51,53.53c.4-.33,1.11-.31,1.58-.1.6.28.91.97.48,1.41-.4.41-1.25.43-1.78.13-.59-.33-.76-1.05-.27-1.45Z"/>
    <path class="cls-9" d="m41.56,37.37c.4-.33,1.11-.31,1.58-.1.6.28.91.97.48,1.41-.4.41-1.25.43-1.78.13-.59-.33-.76-1.05-.27-1.45Z"/>
    <path class="cls-9" d="m52.3,34.08c.4-.33,1.11-.31,1.58-.1.6.28.91.97.48,1.41-.4.41-1.25.43-1.78.13-.59-.33-.76-1.05-.27-1.45Z"/>
    <g class="cls-5">
      <path class="cls-10" d="m21.37,57.46c-1.27-.27-2.63.03-3.47.72-1.3,1.06-1.16,2.87.18,3.9,1.09.84,3.02,1.22,4.48.49,1.45-.73,1.65-2.16,1.28-3.14-.07-.2-.63-1.58-2.47-1.97Z"/>
      <path class="cls-10" d="m26.4,57.48c-1.69,1.89-1.42,4.85.91,6.2,1.47.86,3.25.78,3.89.72v-8.95h-.33c-.58.07-3.03.4-4.48,2.02Z"/>
      <path class="cls-10" d="m60.24,88.76c-.26.06-2.06.5-2.55,1.91-.34.97.08,2.01,1,2.64,1.41.98,3.78.84,5.11-.2,1.09-.84,1.55-2.32.57-3.42-.98-1.09-2.86-1.22-4.13-.93Z"/>
      <path class="cls-10" d="m54.92,83.2v.25c.1.44.57,2.3,2.73,3.38,2.5,1.26,6.38,1,8.12-.79,1.1-1.13.97-2.49.89-2.98l-11.73.14Z"/>
      <path class="cls-10" d="m104.14,58.15c-1.1-.83-3.03-1.2-4.48-.46-1.44.74-1.62,2.17-1.24,3.14.08.2.65,1.57,2.49,1.96,1.27.26,2.63-.05,3.46-.74,1.29-1.07,1.12-2.87-.23-3.9Z"/>
      <path class="cls-10" d="m94.89,56.61c-1.48-.85-3.26-.75-3.9-.7l.1,8.95h.33c.58-.07,3.02-.42,4.46-2.05,1.66-1.9,1.36-4.86-.99-6.2Z"/>
      <path class="cls-10" d="m62.25,31.14c.26-.06,2.06-.5,2.56-1.9.34-.97-.07-2.01-.98-2.64-1.4-.98-3.77-.85-5.12.18-1.09.84-1.57,2.32-.59,3.42.97,1.1,2.85,1.23,4.13.94Z"/>
      <path class="cls-10" d="m64.84,33.07c-2.49-1.27-6.37-1.03-8.12.76-1.11,1.13-.98,2.49-.91,2.97l11.73-.1v-.25c-.1-.44-.56-2.31-2.7-3.39Z"/>
    </g>
    <path class="cls-9" d="m78.22,37.49c.4-.33,1.11-.31,1.58-.1.6.28.91.97.48,1.41-.4.41-1.25.43-1.78.13-.59-.33-.76-1.05-.27-1.45Z"/>
    <path class="cls-9" d="m68.71,33.66c.4-.33,1.11-.31,1.58-.1.6.28.91.97.48,1.41-.4.41-1.25.43-1.78.13-.59-.33-.76-1.05-.27-1.45Z"/>
    <path class="cls-9" d="m88.47,44.58c.4-.33,1.11-.31,1.58-.1.6.28.91.97.48,1.41-.4.41-1.25.43-1.78.13-.59-.33-.76-1.05-.27-1.45Z"/>
    <path class="cls-9" d="m93.05,52.94c.4-.33,1.11-.31,1.58-.1.6.28.91.97.48,1.41-.4.41-1.25.43-1.78.13-.59-.33-.76-1.05-.27-1.45Z"/>
    <path class="cls-9" d="m88.58,73.59c.4-.33,1.11-.31,1.58-.1.6.28.91.97.48,1.41-.4.41-1.25.43-1.78.13-.59-.33-.76-1.05-.27-1.45Z"/>
    <path class="cls-9" d="m92.57,65.18c.4-.33,1.11-.31,1.58-.1.6.28.91.97.48,1.41-.4.41-1.25.43-1.78.13-.59-.33-.76-1.05-.27-1.45Z"/>
    <path class="cls-9" d="m78.74,81.38c.4-.33,1.11-.31,1.58-.1.6.28.91.97.48,1.41-.4.41-1.25.43-1.78.13-.59-.33-.76-1.05-.27-1.45Z"/>
    <path class="cls-9" d="m68.02,84.74c.4-.33,1.11-.31,1.58-.1.6.28.91.97.48,1.41-.4.41-1.25.43-1.78.13-.59-.33-.76-1.05-.27-1.45Z"/>
    <path class="cls-9" d="m42.28,81.28c.4-.33,1.11-.31,1.58-.1.6.28.91.97.48,1.41-.4.41-1.25.43-1.78.13-.59-.33-.76-1.05-.27-1.45Z"/>
    <path class="cls-9" d="m52.58,84.75c.4-.33,1.11-.31,1.58-.1.6.28.91.97.48,1.41-.4.41-1.25.43-1.78.13-.59-.33-.76-1.05-.27-1.45Z"/>
    <path class="cls-9" d="m32.12,73.61c.4-.33,1.11-.31,1.58-.1.6.28.91.97.48,1.41-.4.41-1.25.43-1.78.13-.59-.33-.76-1.05-.27-1.45Z"/>
  </g>
</svg>