<?xml version="1.0" encoding="UTF-8"?>
<svg id="Capa_2" data-name="Capa 2" xmlns="http://www.w3.org/2000/svg" viewBox="0 0 952.74 180.76">
  <defs>
    <style>
      .cls-1 {
        fill: #4f4f4f;
      }

      .cls-1, .cls-2, .cls-3, .cls-4, .cls-5, .cls-6, .cls-7, .cls-8, .cls-9 {
        opacity: .07;
      }

      .cls-2, .cls-10 {
        fill: #4c4c4c;
      }

      .cls-3 {
        fill: #4e4d56;
      }

      .cls-4 {
        stroke: #4f4d5e;
      }

      .cls-4, .cls-6, .cls-11, .cls-7, .cls-8, .cls-9 {
        stroke-miterlimit: 10;
      }

      .cls-4, .cls-6, .cls-7, .cls-8 {
        fill: none;
      }

      .cls-12 {
        fill: #a67c52;
      }

      .cls-13 {
        fill: #745131;
      }

      .cls-6 {
        stroke: #4b4a51;
      }

      .cls-11 {
        fill: #603813;
        opacity: .92;
        stroke: #42210b;
      }

      .cls-7 {
        stroke: #494949;
      }

      .cls-8 {
        stroke: #504f56;
      }

      .cls-9 {
        fill: #3c3b44;
        stroke: #353342;
      }

      .cls-14 {
        opacity: .79;
      }
    </style>
  </defs>
  <g id="Capa_1-2" data-name="Capa 1">
    <g class="cls-14">
      <rect class="cls-12" x="3.22" y="26.54" width="944.43" height="150.89" rx="25.28" ry="25.28"/>
      <g>
        <path class="cls-13" d="m925.15,180.1c-3.51.14-2.25.55-2.78.67,1.5-.1,2.41-.2,2.93-.3.52-.14.66-.24.62-.3-.08-.13-.85-.11-.77-.07Z"/>
        <polygon class="cls-13" points="949.35 137.01 949.55 137.94 949.07 130.23 949.35 137.01"/>
        <path class="cls-13" d="m949.36,88.08c-.82,4.63.13,17.73-.16,26.45l-.19,1.44.66,3.93c-.1-10.6-.54-24.36-.31-31.82Z"/>
        <path class="cls-13" d="m951.14,61.99c-.32,1.61-.27-5.64-.1,6.08.04-.59.06-.76.08-1.1,0-1.06,0-2.51.02-4.98Z"/>
        <path class="cls-13" d="m951.12,66.97c.02,5.15.27-3.37,0,0h0Z"/>
        <path class="cls-13" d="m949.26,42.24c.53,1.17.82,2.42,1.2,3.66.15.62.25,1.26.38,1.89.13.63.24,1.27.28,1.91.01-.2.02-.49.02-.83-.03-.34-.07-.73-.12-1.15-.1-.83-.18-1.77-.39-2.56-.35-1.58-.59-2.66-.2-1.42-.25-.98-.64-1.75-.88-2.42-.25-.67-.51-1.19-.73-1.58-.43-.8-.65-1.13-.7-1.12-.05.02.06.38.29,1.01.11.31.27.69.41,1.12.13.44.27.94.43,1.48Z"/>
        <path class="cls-13" d="m945.5,36.1c.37.53.72,1.08,1.07,1.63.37.54.68,1.11.97,1.69-.12-.32-.26-.74-.58-1.27-.33-.52-.78-1.2-1.46-2.05Z"/>
        <path class="cls-13" d="m950.31,47.24l-.19-1.03c-.08-.34-.19-.67-.28-1.01-.2-.67-.37-1.34-.61-2l-.77-1.93c-.24-.65-.61-1.24-.92-1.86.35,1.06.22,1.2,1.54,3.49-.23-.28-.14-.06.15.65.12.36.28.85.49,1.46.1.31.21.64.32,1.01.1.37.17.78.27,1.21Z"/>
        <path class="cls-13" d="m950.59,51.93c-.18,3.81-.29,8.73-.58,1.91.11,12.99.69,11.07.58-1.91Z"/>
        <path class="cls-13" d="m948.51,85.58l-.24,5.09.28,4.4c-.14-2.2.22-9.81-.03-9.49Z"/>
        <path class="cls-13" d="m911.13,22.83c-.42.17,2.28.47,2.79.69l5.01-.2c-2.58-.12-7.46-.23-7.8-.49Z"/>
        <path class="cls-13" d="m913.92,23.52l-7.5.3c6.7.04,7.93-.11,7.5-.3Z"/>
        <path class="cls-13" d="m943.97,35.57c1.45,1.66,2.57,3.59,3.6,5.56.9,2.03,1.71,4.14,2.11,6.36-.2-1.33-.66-2.6-1.04-3.88-.52-1.23-.96-2.49-1.64-3.64-.58-1.2-1.37-2.27-2.09-3.37-.84-1.02-1.62-2.08-2.58-2.98l.86.94c.27.33.51.67.77,1.01Z"/>
        <polygon class="cls-13" points="882.47 22.81 886.73 22.4 879.15 23.01 882.47 22.81"/>
        <path class="cls-13" d="m863.47,22.88c3.15-.33-4.31-.57-.99-.77-5.16.06-9.57.35-13.54.61,4.22-.14,8.71-.11,14.53.17Z"/>
        <path class="cls-13" d="m842.28,23.09c2.11-.08,4.29-.22,6.67-.38-2.24.08-4.44.19-6.67.38Z"/>
        <path class="cls-13" d="m893.63,23.73c-.58-.11-1.7-.38-5.9-.5l2.95.49c.9,0,1.92,0,2.95,0Z"/>
        <path class="cls-13" d="m890.78,23.74l-.1-.02c-3.2-.01-5.42-.02-6.37-.03.82,0,2.77.02,6.48.04Z"/>
        <path class="cls-13" d="m894.38,23.73c-.27,0-.47,0-.74,0,.28.05.46.06.74,0Z"/>
        <path class="cls-13" d="m926.41,24.65c-1.19-.17-2.73-.12-4.15-.12-1.34.07-2.63.15-3.49.23-1.74.16-1.81.34,2.64.55,1.58-.17,1.12-.29,1.06-.46-.03-.08.06-.15.61-.21.27-.03.66-.06,1.2-.07.27,0,.59-.01.94-.02.36.03.75.07,1.2.1Z"/>
        <path class="cls-13" d="m898.04,24.35l7.97.11c-.16-.13-1.59-.32.59-.46l-8.56.34Z"/>
        <polygon class="cls-13" points="894.14 24.5 898.04 24.35 895.09 24.31 894.14 24.5"/>
        <path class="cls-13" d="m855.93,23.55c-3.44.21-7.21.23-11.46.27,4.56.1,9.27.15,13.75.15.63-.15,2.6-.43-2.29-.41Z"/>
        <path class="cls-13" d="m872.87,23.68c-.24,0-.54.02-.77.03.47.04.85.05.77-.03Z"/>
        <path class="cls-13" d="m802.59,23.81c.23.03.43.06.67.09.05-.03.09-.06.16-.09h-.83Z"/>
        <path class="cls-13" d="m858.98,24.05c3.43.1,5.47-.03,7.43-.18-2.56.05-5.28.08-8.19.08-.28.07-.34.12.77.09Z"/>
        <path class="cls-13" d="m830.59,23.32c1.78.1,3.81.19,5.93.27-1.74-.16-5.3-.4-5.93-.27Z"/>
        <path class="cls-13" d="m870.95,23.58c.17,0,.33-.01.51-.02-1.12-.1-.98-.05-.51.02Z"/>
        <path class="cls-13" d="m870.95,23.58c-1.76.07-3.15.19-4.54.3,2.09-.04,4.02-.09,5.7-.16-.42-.03-.85-.09-1.16-.14Z"/>
        <path class="cls-13" d="m789.91,26.97c.6-.46,9.61-.88,17.39-.39,7.65-.34,2.65-1.84-4.03-2.68-.24.2-.24.38-8.11.65,2.76.25,17.47.58,10.83.99-10.43.23-8.55-.16-13.62-.4,4.31.57-13.27.83-11,1.66l9.15-.29c.17.13-3.15.34-.6.46Z"/>
        <path class="cls-13" d="m818.27,23.95l3.24-.06c-3.69-.08-6.34-.26-11.21-.62-5.39.22-6.51.39-6.88.54l15.96.06-1.11.07Z"/>
        <path class="cls-13" d="m836.06,23.89c-2.53.5-10.31.71-5.55,1.24,9.51-.03,6.66-.41,12.34-.63-15.35.12,4.41-.28-6.68-.56,3.02-.08,5.73-.11,8.29-.13-2.76-.06-5.43-.13-7.94-.23.14.01.24.02.35.03h.07s-.01,0-.01,0c.66.06.88.1.13.06-.05,0-.24,0-.32.01-.1.07-.39.13-.69.19-4.44-.1-.7-.13.69-.19.05-.03.17-.05.19-.07-.01,0-.04,0-.06,0l-15.37.27c3.25.07,7.33.06,14.55,0Z"/>
        <path class="cls-13" d="m913.2,26.37c-.48-.04-.46-.08-.49-.12-.99.06-1.37.1.49.12Z"/>
        <path class="cls-13" d="m906.87,26.08c1.12-.07,2.05-.27,5.68-.22,3.15.15-.01.24.15.4,2.19-.13,7.66-.36.8-.6l-1.09.07c-6.19-.17-14.14-.79-13.06-.86,1.81.45,3.4.76,7.52,1.2Z"/>
        <path class="cls-13" d="m871.02,25.11l-12.8.24,6.52.43-.33-.26c7.28.1,5.71-.22,6.61-.41Z"/>
        <polygon class="cls-13" points="801.13 23.56 802.83 23.04 795.43 23.78 801.13 23.56"/>
        <polygon class="cls-13" points="784.49 23.63 785.11 23.17 780.72 23.45 784.49 23.63"/>
        <path class="cls-13" d="m31.47,174.7l3.76-.13c-1.78.04-2.92.08-3.76.13Z"/>
        <path class="cls-13" d="m10.07,165.06c-.18-.12-.37-.23-.53-.36.75.86,1.12,1.15.53.36Z"/>
        <path class="cls-13" d="m375.96,23.68c-5.48-.42-11.6-1.08-10.94-.57l1.68.5c3.83-.09,6.76-.03,9.25.07Z"/>
        <path class="cls-13" d="m96.16,26.66c.52.05,1.06.1,1.6.15,1.33-.17,2.58-.33,3.7-.48-1.59.1-3.4.21-5.3.33Z"/>
        <path class="cls-13" d="m92.3,28.72l-7.22-.32c1.62.11,3.95.22,7.22.32Z"/>
        <path class="cls-13" d="m180.19,174.18l4.39-.51c-6.87,0-3.84.26-4.39.51Z"/>
        <path class="cls-13" d="m614.13,23.81c-4.73-.2-8.49-.28-11.8-.3,5.7.29,10.29.72,11.8.3Z"/>
        <path class="cls-13" d="m20.1,178.7c1.23.3,2.12.46,2.69.56.57.06.83.03.81-.02-2.55-.41-3.97-.83-3.5-.53Z"/>
        <path class="cls-13" d="m588.67,23.51c.83.04,1.65.08,2.5.12,3.46-.08,6.93-.15,11.16-.12-4.21-.21-9.02-.34-13.65,0Z"/>
        <path class="cls-13" d="m719.55,174.59c.39.02.86.04,1.22.06.12-.07-.42-.07-1.22-.06Z"/>
        <path class="cls-13" d="m876.68,179.62c-1.55.03-4.07.03-6.45.04,1.16.03,3.1.03,6.45-.04Z"/>
        <path class="cls-13" d="m717.56,23.41c3.53-.03.56-.05,0,0h0Z"/>
        <path class="cls-13" d="m734.72,25.38c-.75.06-1.32.13-1.41.24.29-.12.78-.2,1.41-.24Z"/>
        <path class="cls-13" d="m553.53,26.62c-.1,0-.19,0-.31,0,1.05.1.87.08.31,0Z"/>
        <path class="cls-13" d="m722.87,23.64c-1.32-.06-2.85-.11-4.51-.15.73.04,2.1.09,4.51.15Z"/>
        <path class="cls-13" d="m722.16,23.4c1.22.02,2.17.03,3.08.05.45-.08.05-.14-3.08-.05Z"/>
        <path class="cls-13" d="m712.65,23.44c2.02,0,3.9.02,5.71.05-.69-.03-.98-.06-.8-.08-1.03,0-2.49.01-4.91.03Z"/>
        <path class="cls-13" d="m430.56,175.92c.23.01.5.03.76.05,3.56-.21,2-.17-.76-.05Z"/>
        <path class="cls-13" d="m284.13,28.86c.17,0,.25-.01.4-.02-.17,0-.37-.01-.52-.02l.12.04Z"/>
        <path class="cls-13" d="m271.46,29.23c5.4-.62,8.46-.54,12.55-.41l-4.19-1.44-8.36,1.85Z"/>
        <path class="cls-13" d="m96.67,174.56l-8.9-.45c10.74-.74,18.51-.48,10.16-1.11-1.26,1.56-34.59.16-35.83,1.72l-5.87-.33c1.68.01,1.95-.08,3.61-.06-11.41-.75-8.47,1.13-23.17.91-5.12-.12-8.7-.35-5.2-.53l-2.85.1c-.88-.01-1.72,0-2.58-.04-.84-.12-1.71-.15-2.55-.33-.83-.21-1.7-.31-2.5-.62-.7-.27-1.19-.46-1.46-.6-.26-.16-.34-.24-.24-.23.18.05,1.08.29,2.46.82-4.97-1.53-9.39-4.82-12.3-9.17l.1.07c-.33-.45-.79-1.03-1.27-1.72-.21-.36-.44-.74-.67-1.14-.24-.39-.48-.8-.65-1.24-.2-.43-.39-.87-.59-1.29-.2-.43-.31-.87-.46-1.29-.14-.42-.28-.82-.39-1.19-.08-.38-.16-.74-.23-1.05-.11-1.02-.12-1.41-.07-1.43.02-.02.07.33.17.77.17.88.39,2.12.41,1.59l-.43-2.17-.21-2.22-.2-4.81c.2-1.96.4-.95.54,1.39.03.59.06,1.25.09,1.98.01.36.02.74.04,1.13.02.38.06.72.08,1.09.06.73.08,1.5.24,2.25.12.76.21,1.52.43,2.24-.11-2.06-.04-3.49-.03-4.79-.01-.71-.02-1.38-.04-2.07-.03-.72-.07-1.47-.11-2.29-.18-3.3-.44-7.91.02-17.62l.2,9.1c.89-5.87.56-12.97,1.12-23.26-.29,2.44-1.39,20.6-1.78,10.14.12-2.95.17-6.83-.14-12.48.56-.05.42-5.56.39-12.46l.74.47c-.21-7.46-.59-6.87-.92-11.25.07-8.31.64-10.03,1.12-11.99.12-13.31-.91,9.19-1.05-6.56.14-5.53.14-10.24.04-15.22-.03-1.25-.06-2.51-.09-3.8-.01-.63-.05-1.34-.04-1.94.01-.6.02-1.21.03-1.84.17-2.48.7-5.15,1.92-7.92.21-.39.38-.73.55-1.01.19-.27.34-.5.47-.68.26-.37.42-.58.51-.67.18-.19.07.1-.1.49-.18.4-.43.91-.54,1.19-.08.31-.08.35.27-.16.83-1.86,1.92-3.63,3.22-5.27,1.12-1.04.89-.56.77-.33.46-.46.81-.82,1.07-1.1.28-.26.48-.45.62-.61.28-.31.35-.48.49-.7.14-.22.36-.51,1.02-.98.33-.24.74-.56,1.33-.92.61-.3,1.34-.77,2.32-1.16.23-.19.67-.41,1.28-.67.61-.27,1.43-.41,2.36-.64.47-.12.99-.13,1.52-.2.54-.05,1.1-.15,1.7-.12.59,0,1.21,0,1.85,0,.68.03,1.38.07,2.11.1,5.77.28,12.64.55,18.27.09,2.77.21-1.34.45-.49.74,15.45-.6,13.24-.44,25.92-1.25l10.8.48c-7.94-.55,2.2-1.21,11.09-1.74-2.82-.27-5.22-.5-6.84-.61l14.18-.39c1.71.12.28.37-2.04.68.97-.07,1.88-.13,2.6-.18,5.07.27,2.44.7-1.19,1.11-1.73-.15-3.44-.31-5.11-.45-3.5.45-6.78.94-6.05,1.37.92-.09,2.7-.16,4.65-.2-.92.12-1.5.23-1.08.3.48.08,1.96-.09,4.28-.27l3.22.82.78-.33,18.55.51c13.27-.83,24.81-2.04,45.88-2.38-5.23.6-1.12.98-1.41,1.69-5.75-.75-16.31.32-27.23.17,5.7.08,4.44.42,2.99.54l19.47-.69c-.44.58,4.13.44,9.22.68-3.84-1.15,14.51-.77,22.43-1.12.49.39-1.41.78-11.07.69,10.66.87,13.78-1.35,24.25-.62-2.36,0-3.63-.05-4.56.15,5.51-.34,18.99-.07,15.82.26h-2.35c15.67.14,47.69.02,50.03-.96.16.13-2.05,1.18-3,1.38l27.96-3.29c-2.46.84,6.99,2.84-6,3.32,3.73.12,8.35.26,16.21-.04-2.55-.12-6.34-1.21-2.87-1.29,9.55.94,6.63.5,18.39,1.3-3.81-.18.42-1.5,6.45-1.46-.94.2.5,1.3-1.7,1.44l15-1.29c-3.74.23-.66,1.1,2.7,1.46-1.56-.25,12.97.02,16.97-.1l-6.36-.3c16.94.2,16.73-1.82,33.54-1.75-2.03.27-5.02,1.64,3.52,1.81,3.92-.66,17.34-3.19,32.21-3.7l2.85.38,11.41-.43c-7.1,1-27.04,3.09-37.93,3.91,6.34.3,1.77.45,11.26.41,3.35.36-5.18.54-7.97.56l22.1.23c-.98-.77,16.9-.78,16.06-1.42l-24.01.8c-.97-.77,13.88-2.19,29.54-2.06,3.98.31-2.98,1.38-2.65,1.63,2.03-.27,14.86-.51,16.3-.32l-6.64.41c8.72.29,14.23-1.02,24.71-.29,3.62.05,10.8,1,11.42.54-5.9-.88-7.05-3.61-3.12-4.27,1.27.06,18.99.84,23.12,1.28,5.96.69-8.94,1.65-3.87,2.24.22-.21,3.51-.47,4.88-.56,3.8.18-1.57.65,6.68.56,1.38-.78,16.78.07,3.9-.66,8.07-.22,8.58.16,18.06.13-3.02-.51,8.51-1.72,16.6-1.95-.48.2,1.34.46,2.22.58,16.55.07,25.43.43,40.86.43,1.42.19,8.87.42,5.7.76,2.22-.14,4.26-.4,9.02-.42,9.21.68-10.61.11-3.59.92.6-.46,12.31-.63,19.09-.91-2.09-.7-15.66-.14-22.45.15-.03-.97,11.79-1.99,27.91-2.44,12.82-.24,5.56.63,7.78.49,24.07.17,20.51-1.69,40.5-.99,7.93.62.36,1.23,2.12,1.68-10.44.23-16.03-.39-23.11-.37l8.71.29c-3.32.21-10.29.36-14.09.18,6.65.55,40.67.11,59.25.62,3.3-.21,9-.42,6.3-.67l-5.88.09c-5.4-.5,11.06-.69,3.62-.92,7.88-.35,16.72-.9,27.82-.62l2.09.7c-.24-.21-7.25-.42-10.37-.2,4.63-.31,17.02.95,22.09.03l-7.78-.49c7.92-.35,17.7-1.1,27.54-.88-4.48-.7-2.27.08-9.26-.74,6.06,1.01-25.16-.04-15.43,1.02-7.17-.95-12.41-.4-21.79-1.21.29.23,3.32.45-4.94.33-.37.07-1.25.15-1.81.2-.25,0-.34-.01-.56-.02.17,0,.29.02.46.03-.36.04-.39.04.17,0,1.97.1,3.56.22,4.21.35-4.1.53-17.23.52-21.67.79-4.9-.11,2.05-.27-.63-.52l-6.63.41c-.66-.52-13.02-.86-1.47-1.16l-10.39-.02c-6.12-.29-14.53-.4-19.72-.19-4.9-.11-12.38.57-8.11.17l-16.29.32-.15-.13c-16.07-.07-33.09.86-51.47-.08-5.41.13-11.01.29-20.06.14l-1.77-.45c-6.95.16-20.87-.45-23.85.02-7.5-1.2-33.72-.26-45.94-.48l-.46.58c-8.41-.03-16.48.13-26.92.37l.64.52c-9,.42-23.14-.37-37.38-.31.97-.2,4.58-.15,7.14-.03-17.01-1.17-35.89.85-51.32,0-3.84.19-6.63.12-9.32,0,.36,0,.68-.01.95-.03-.39,0-.98,0-1.58,0-1.7-.09-3.45-.18-5.34-.27,1.61.13,3.15.23,4.49.28-2.96.01-7.46.07-11.87.2l-1.88-.55c-.36,0-.65,0-1.02.02-4.33-.2-3.48.26-1.17.68-2.22.09-4.25.2-5.83.33-3.51-.89-11.56.3-16.36-.65-2.97.46-22.16.35-24.51,1.33-.15-.13-1.45-.19.93-.2-4.91-.11-9.82-.22-14.23.05l-2.09-.7-10.73.95c-6.52-.43-9.22-.68-2.75-1.22-15.63.83-12.68.31-25.97,1.14l.65-.46c-4.75.02-12.35.63-15.21.25-10.63-.87-52.59-.12-79.87-.92,5.29,1.34-12.68-.6-13.76.44-1.59-.32-5.39-.5-.97-.77-13.92.31-20.92-.5-30.53.37-1.59-.32,2.98-.46,1.56-.65-1.12.07-4.42.28-5.87.09-1.42-.19,2.04-.27,4.24-.4-14.22.05-15.66,1.03-16.7,1.95-7.21-.43-10.8-.37-16.01.23-2.51-.3-6.69-.61,2.14-.72-4.97-.04-30.37-.44-30.88.3-1.56-.19-6.95-.05-8.26.03-11.16-.04-12.14-.11-23.09-.04l3.04.12c-1.08.22-2.19.34-3.39.41-1.22.05-2.53.1-3.98.16-1.46.14-3.08.33-4.86.81-.9.19-1.79.58-2.77.91-.48.17-.95.43-1.44.66-.48.25-1.01.45-1.49.78l.18-.22c-4.69,2.53-6.88,5.1-8.26,6.77-1.38,1.72-1.85,2.79-2.42,3.76-.45,1.05-1,2.03-1.71,4.07-.21.5-.37,1.08-.55,1.74-.17.66-.43,1.39-.55,2.25-.14.85-.37,1.79-.42,2.87-.04.54-.09,1.11-.14,1.7-.02.57-.04,1.16-.06,1.78l.55-1.09c1.19,1.86-.7,17.7-.25,29.29l.31-4.19c.41,6.33-1.61,17.7-1.76,24.06-.1,1.39-.17-2.19-.24-4.12-.7,16.65.72,2.16.89,14.56-.39,2.29-.99-2.95-1.06,5.4-.16,2.08.16,8.14.42,15.09.13,3.48.25,7.19.29,10.73.02,1.77.02,3.51-.01,5.16-.02.82-.04,1.62-.07,2.4-.02.39-.03.77-.05,1.14,0,.41,0,.8-.01,1.19.02-.35.04-.69.06-1.02.04-.3.08-.58.11-.83.07-.5.15-.86.22-.97.07-.11.14.04.2.58.05.56.14,1.52.27,3.02.02.3.04.6.05.9.04.31.09.62.14.93.1.63.17,1.29.3,1.96.16.67.32,1.35.48,2.05.16.7.44,1.38.66,2.1,1,2.82,2.53,5.68,4.55,8.16,2,2.49,4.47,4.58,7.03,5.99.61.4,1.28.67,1.91.96.63.29,1.24.57,1.87.75.62.2,1.22.38,1.8.54.59.12,1.16.21,1.69.29,1.15.41,1.6.51,1.64.6.92.09,1.96.3,3.13.28.58.01,1.18.03,1.81.04.58-.01,1.17-.03,1.78-.04,2.44-.06,5.1-.12,7.67-.18,5.15-.14,9.96-.3,12-.56,6.24,1.9,41.98-.93,41.83.83l20.77-.09-.54.18c13.28.12,17.97-.31,22.64-.73,3.07.12.83.28.57.38,19.4.35,21.33.28,37.59-.6l1.69.57c4.41-.33,28.04.89,47.07.23-.19.07-.58.18-2.09.26,21.4-.67,51.24,1.58,59.09-.5l14.12-.51c-18.27-.16,2.72-.9-4.8-1.25,7.19-.12,18.58.63,9.75.73l-1.38-.1c-3.24,1.08,22.71.38,22.22,1.12,35.96-.05,71.01.55,104.69.59l-3.88-.84,11.75.05c3.08.2,4.14.66-4.24.62,4.41.48,14.06-.4,14.3-.58,16.41.34-6.41.98-1.38,1l6.83-.06-1.54-.1c5.54-.34,6.03-.71,16.11-.67,6.37.17,3.27.52,5.78.55,0,.03.2.05.79.06.59,0,1.55,0,3.06-.03l14.8.07-5.92-.66c6.56-.33,13.92.03,7.09-.72,10.03,1.16,55.22.42,61.37.78,9.19-.48,18.26-.48,29.5-.42-2.79-.14-4.47-.88,5.23-.79-3.54,1.54,17.75.67,25.58,1.78-7-.74,27.55-.18,16.57-1.23,8.09.13.49.58,6.63.94,19.25-.6,42.42.39,66.21.19.37-.2-3.61-.51,1.49-.81l12.56,1.01c4.7-.1,4.33-1.17,12.91-.47-1.21-.17-3.02-.43.13-.49,46.61.99,95.24-.81,142.57,1.04-6.41-.39-2.14-.43,2.76-.45-3.18-.09.07-.5-.55-.77l19.82.76c3.61-.76,21.25-.05,23.31-.78l-6.28.13c8.35-.86-11.68-1.91-10.46-3.01-9.34.98-24.64-1.45-39.97-.05-3.38-.22,2.89-.36,1.08-.61-3.89.47-8.58.57-17.28.36l.98-.12c-24.43.12-34.91-.35-62.36-.66l2.03.54c-5.9-.07-7.14-.24-9.9-.38-6.77.83,16.57.05,10.4.96-7.82-1.11-41.59-.02-46.88-1.28-9.07,0,2.66.63-6.41.62l-2.41-.34-2.29.44c-5.95-.07-8.95-.5-9.17-.79,1.44.03,4.1-.08,5.65-.11-7.71-.4-21.75.14-24.4,0l8.72.21c-24.76.32-55-.13-78.92.56l1.82.26c-18.27.48-14.63-.28-34.69-.06l.73-.06c-4.01.26-9.38.39-14.86.36,5.07-.3-9.53-.58-2.89-.92-19.81.51-9.8.4-22.88,1.36l-3.02-.43c-4.46.39-4.83.59-14.85.7,8.22-.37-6.39-.65,2.81-1.13-21.02-.93-31.21.94-40.86-.42-9.65,1.18,18.19.66,12.79.91,4.53.39-7.97.88-14.57.76-6.72-.03-11.42-1.51-28.31-1.49,1.68,0,1.8-.08,3.47-.08-6.32-.3-12.39.41-20.14-.08-4.35.71-10.07-.04-11.32.87l15.5-.21c-8.78.24-17.02,1.3-31.49.79,1.13-.18,5.43-.43,8.39-.56-4.23-.27-8.15.18-12.54-.1,1.25-.91,18.83-.2,28.24-.89-4.54-.38-17.8.66-13.07-.33-6.8,1.25-16.64-.16-28.08.8l.75-.55c-1.81.09-5.56.34-8.89.33l6.03-.71c-9.26.6-17.85-.53-26.74-.2,18.6-.02,4.17.66,12.04,1.06-22.94.73-13.19-1.43-38.88-1.17,3.48-.08,13.05.33,7.62.58-4.89-.11-11.35-.32-14.35-.61-17.02.11,2.61.56-4.63.9-5.79-.67-8.36.27-15.82.48l-.05-.55c-19.39-.36-5.14,1.16-22.6.73l7.38-.77-9.1.2,1.88-.63c-9.9.47-12.98.35-22.69.17,2.25.39-1.27,1.01-9.86,1.02-5.86-.33,3.28-.53-8.89-.45,2.75-.35,5.76-.78,11.06-.27.54-.18,2.71-.35,3.27-.53-6.31-.38-15.85-.09-20.26-.08,1.7.02,3.73.05,4.77.13l-17.65.77c-2.78-.21-.57-.38,1.61-.54-3.58.06-6.05.32-11.3.36,1.36-.45,1.03-.92,8.47-1.13l-16.82.5c-1.12-.2-8.63-.54-6.45-.7-9.32-.27-22.87.88-35.23.53-.64.09-1.93.17-4.56.24-11.62-.1-21.91-.66-35.68-.04l-7.81-.81c-10.78.18,10.58,1.02-7.38,1.32-12.71.26-4.75-.69-9.2-.91-6.32.41-17.31,1.24-28.99.58,3.87-.15,6.9-.03,10.51-.09ZM5.74,127.04c.12,2.58.48,7.71.15,9.6-.64-2.94-.33-5.2-.15-9.6ZM115.74,27.72c-1.92.18-4.88.09-8.22-.12,2.43-.05,5.18-.03,8.22.12Zm563.15-3.86c-.11.01-.19.02-.28.03-5.75-.22-3.71-.13.28-.03Zm11.94.24c1.2-.08,1.12-.15.61-.23-.83.14-3.51.15-6.57.11.85.15,2.39.25,5.96.12Zm-222.59,155.56l-2.32-.14c5.25-.16,3.78-.02,2.32.14Z"/>
        <path class="cls-13" d="m92.82,28.48c-.73-.09-.93-.2-1.1-.3-1.01.09-1.03.2,1.1.3Z"/>
        <path class="cls-13" d="m179.38,174.27h.4c.22-.03.34-.06.41-.09l-.81.09Z"/>
        <path class="cls-13" d="m505.94,28.81c-2.46-.08-3.83-.18-4.74-.29-.13.14.98.25,4.74.29Z"/>
        <path class="cls-13" d="m754.08,23.16l-7.65.14c3.7-.03,5.02.09,6.89.18-.17-.13-1.63-.32.76-.33Z"/>
        <path class="cls-13" d="m820.44,26.59c1.12-.07,2.37,0,3.47-.08l-.31-.26c-4.76.02-8.09.22-3.17.33Z"/>
        <path class="cls-13" d="m761.16,25c.61.47,5.4.31,10.76.22h-.95c1.58-.65-4.13-.44-9.81-.22Z"/>
        <path class="cls-13" d="m773.16,25.21c1.65-.02,3.34-.03,4.95-.01.63-.26-2.01-.05-4.95.01Z"/>
        <path class="cls-13" d="m705.97,23.79c2.54.12,1.59-.6,3.03-.41,2.84-.59-16.93.72-3.03.41Z"/>
        <polygon class="cls-13" points="765.5 26.54 763.58 25.96 760.57 26.43 765.5 26.54"/>
        <path class="cls-13" d="m723.21,26.12l8.56.16c-.13-.1.96-.15,2.29-.2-5.27-.02-11.05-.13-10.85.04Z"/>
        <path class="cls-13" d="m734.06,26.08c2.75.01,5.36,0,6.89-.1-1.49,0-4.68.03-6.89.1Z"/>
        <polygon class="cls-13" points="753.8 26.71 751.27 26.59 745.22 26.55 753.8 26.71"/>
        <path class="cls-13" d="m631.21,26.01l-9.34.16c-.95.2,1.59.32,5.07.24,2.24-.14,5.7-.21,4.27-.4Z"/>
        <path class="cls-13" d="m659.46,27.58c-2.53-.12-2.7-.25-4.12-.44l-.28.71,4.4-.28Z"/>
        <path class="cls-13" d="m632.22,27.75c-.93.2-13.55.57-1.72.52.95-.2,10.3-.36,1.72-.52Z"/>
        <polygon class="cls-13" points="491.5 26.85 493.87 26.84 493.53 25.67 491.5 26.85"/>
        <path class="cls-13" d="m367.46,29.65c11.07.28,2.63-.72,12.63-.37,2.6-.28-8.17-.29-5.51-.53-6.68.29-10.19.13-7.12.9Z"/>
        <path class="cls-13" d="m374.58,28.75c1.07-.06,2.2-.11,3.41-.18-1.93.07-2.85.13-3.41.18Z"/>
        <polygon class="cls-13" points="902.76 180.25 909.88 180.5 905.28 180.1 902.76 180.25"/>
        <path class="cls-13" d="m916.42,179.38l1.68.75,4.27-.68c-1.61.03-4.73.1-5.95-.07Z"/>
        <path class="cls-13" d="m7.24,107.27l-.18-.54c-.19,1.1-.21,2.77-.24,6.11l.42-5.56Z"/>
        <polygon class="cls-13" points="40.44 173.97 38.78 173.96 41.88 174.63 40.44 173.97"/>
        <path class="cls-13" d="m121.45,173.11c-3.31-.03-7.19.12-10.51.09,7.21-.12,11.41.75,10.51-.09Z"/>
      </g>
    </g>
    <rect class="cls-11" x="12.92" y=".5" width="198.38" height="32.94" rx="7.53" ry="7.53"/>
    <path class="cls-8" d="m875.02,49.86c-3.93.08-14.15.39-25.17,5.34-3.23,1.45-5.65,2.9-7.17,3.83-3.26,1.97-10.77,6.61-17.62,14.85-7.94,9.56-10.92,19.08-12.08,23.79-3.93,15.95.19,28.72,1.26,31.8,1.13,3.25,6.3,17.18,21.39,28.43,12.37,9.21,24.91,11.79,29.2,12.53,3.46.6,16.73,2.62,32.59-2.09,11.9-3.53,19.62-9.18,22.02-11.02,3.46-2.65,12.09-9.85,17.87-22.05,1.3-2.74,5.96-13.13,5.41-27.27-.17-4.32-.62-13.28-5.79-23.44-7.36-14.46-19.45-21.81-24.16-24.6-5.59-3.31-19.48-10.47-37.75-10.1Z"/>
    <path class="cls-6" d="m824.65,90.47c.88-1.9,3.96-8.15,10.47-14.51,1.88-1.83,8.18-7.72,18.5-11.95,4.43-1.82,17.14-6.84,33.47-4.18,3.58.58,22.11,3.95,34.86,19.84,1.65,2.06,9.71,12.44,10.7,27.97,1.02,15.98-6.08,27.43-7.55,29.71-8.81,13.69-21.95,19.33-26.3,21-21.06,8.08-39.94,1.12-43.42-.23-3.35-1.3-20.4-8.28-29.45-26.23-1.03-2.04-10.5-21.62-1.28-41.43Z"/>
    <path class="cls-4" d="m836.38,101.96c1.51-6.55,4.19-10.8,4.78-11.72,1.47-2.27,2.86-3.84,3.27-4.29,3.71-4.1,7.61-6.27,10.57-7.89,2.24-1.22,6.17-3.34,11.83-4.76,3.72-.93,11.21-2.72,20.26-.58,5.54,1.31,9.25,3.55,12.21,5.34,3.69,2.22,8.96,5.47,12.96,11.49,2.74,4.11,3.63,7.62,4.78,12.18,1.43,5.63,2.79,11.01,1.26,17.75-1.3,5.7-4.03,9.61-5.79,12.07-5.15,7.21-11.4,10.88-13.09,11.84-5.19,2.92-9.76,4-12.58,4.64-4.22.96-11.12,2.46-19.63.7-6.38-1.32-10.74-3.86-12.84-5.11-7.37-4.38-11.33-9.71-12.71-11.72-1.36-1.97-4.1-6.36-5.54-12.53-1.85-7.96-.47-14.28.25-17.41Z"/>
    <polygon class="cls-2" points="876.91 111 867.78 118.9 876.91 178.55 876.91 111"/>
    <polygon class="cls-2" points="876.91 39.99 876.91 111 886.97 101.72 876.91 39.99"/>
    <polygon class="cls-2" points="800.39 111 867.78 101.96 876.91 111 800.39 111"/>
    <polygon class="cls-2" points="952.67 111 876.91 111 886.97 118.9 952.67 111"/>
    <polygon class="cls-2" points="832.46 151.11 859.4 117.92 867.63 119.08 832.46 151.11"/>
    <polygon class="cls-2" points="862.43 130.51 857.27 154.18 870.43 136.23 869.91 132.82 863.85 139.32 866.59 127.95 862.43 130.51"/>
    <polygon class="cls-2" points="854.32 103.76 847.67 99.41 857.27 101.58 860.23 102.97 855.26 98.01 828.58 92.21 850.19 103.76 854.32 103.76"/>
    <polygon class="cls-2" points="867.53 101.38 869.03 93.84 832.61 69.7 867.53 101.38"/>
    <polygon class="cls-2" points="857.14 65.67 870.24 85.28 869.58 89.37 865.04 82.75 866.58 92.21 862.17 89.29 857.14 65.67"/>
    <polygon class="cls-2" points="887.37 101.69 921.27 69.93 899.37 97.26 894.77 102.74 887.37 101.69"/>
    <polygon class="cls-2" points="895.9 101.4 907.49 99 900.38 103.54 904.53 104.14 925.86 92.21 898.76 97.99 895.9 101.4"/>
    <polygon class="cls-2" points="884.91 89.12 889.58 82.32 886.47 94.5 891.76 90.76 896.79 65.67 884.15 84.44 884.91 89.12"/>
    <polygon class="cls-2" points="886.97 118.9 920.83 150.93 885.86 127.14 886.97 118.9"/>
    <polygon class="cls-2" points="887.23 128.65 889.87 138.57 884.7 132.01 883.93 136.89 896.79 155.22 891.53 131.01 887.23 128.65"/>
    <polygon class="cls-2" points="894.85 118.9 899.31 124.4 925.23 129.23 904.79 116.76 900.19 117.74 908.87 122.99 894.85 118.9"/>
    <polygon class="cls-3" points="832.61 84.09 824.65 74.37 820.53 80.08 832.61 84.09"/>
    <polygon class="cls-3" points="814.14 93.61 825.69 99.06 812.36 100.45 814.14 93.61"/>
    <line class="cls-9" x1="847.67" y1="92.79" x2="839.4" y2="88.15"/>
    <path class="cls-9" d="m836.26,85.83c.55-.54,1.53-.52,2.17-.16.82.47,1.26,1.61.66,2.35-.55.68-1.72.72-2.45.22-.81-.55-1.04-1.75-.38-2.41Z"/>
    <polygon class="cls-3" points="813.62 127.54 826.19 121.69 812.36 120.53 813.62 127.54"/>
    <polygon class="cls-3" points="820.08 141.28 833.11 136.36 824.24 147.01 820.08 141.28"/>
    <polygon class="cls-3" points="838.19 159.43 848.78 150.58 844.59 163.32 838.19 159.43"/>
    <polygon class="cls-3" points="857.76 168.54 865.14 156.67 866.02 170.55 857.76 168.54"/>
    <polygon class="cls-3" points="888.55 168.68 889.11 156.85 896.28 168.54 888.55 170.06 888.55 168.68"/>
    <polygon class="cls-3" points="909.45 163.23 904.59 150.52 916.63 159.2 909.45 163.23"/>
    <polygon class="cls-3" points="929.54 147.1 919.82 136.89 933.82 141.06 929.54 147.1"/>
    <polygon class="cls-3" points="941.76 120.41 927.68 120.41 940.39 126.51 941.76 120.41"/>
    <polygon class="cls-3" points="941.7 100.2 926.93 99.41 940.15 92.75 941.7 100.2"/>
    <polygon class="cls-3" points="933.89 79.58 920.01 84.15 929.37 73.53 933.89 79.58"/>
    <polygon class="cls-3" points="915.31 61.84 905.1 70.28 908.88 58.22 915.31 61.84"/>
    <polygon class="cls-3" points="897.09 53.02 889.18 64.36 888.41 51.21 897.09 53.02"/>
    <polygon class="cls-3" points="865.82 50.59 865.33 63.2 857.27 52.77 865.82 50.59"/>
    <polygon class="cls-3" points="844.84 57.75 848.34 69.23 837.91 62.52 844.84 57.75"/>
    <polygon class="cls-1" points="848.78 116.76 828.58 128.65 854.43 124.03 857.27 120.06 845.44 122.03 854.41 117.33 849.47 116.76 848.78 116.76"/>
    <line class="cls-9" x1="842.93" y1="102.89" x2="833.74" y2="101.26"/>
    <line class="cls-9" x1="857.27" y1="82.35" x2="852.49" y2="75.49"/>
    <line class="cls-9" x1="869.03" y1="77.71" x2="866.71" y2="70.28"/>
    <line class="cls-7" x1="832.61" y1="69.7" x2="860.23" y2="102.97"/>
    <line class="cls-7" x1="800.39" y1="111" x2="867.78" y2="118.9"/>
    <line class="cls-7" x1="832.61" y1="150.93" x2="868.88" y2="126.1"/>
    <line class="cls-7" x1="886.97" y1="118.9" x2="876.91" y2="178.55"/>
    <line class="cls-7" x1="894.15" y1="118.04" x2="920.83" y2="150.93"/>
    <line class="cls-7" x1="887.23" y1="101.67" x2="952.67" y2="111"/>
    <line class="cls-7" x1="885.86" y1="94.91" x2="921.27" y2="69.93"/>
    <line class="cls-7" x1="876.91" y1="39.99" x2="867.78" y2="101.96"/>
    <line class="cls-9" x1="833.74" y1="120.06" x2="842.93" y2="118.04"/>
    <line class="cls-9" x1="839.37" y1="133.75" x2="846.42" y2="128.65"/>
    <line class="cls-9" x1="858.15" y1="138.57" x2="853" y2="146.17"/>
    <line class="cls-9" x1="867.87" y1="143.27" x2="866.71" y2="151.62"/>
    <line class="cls-9" x1="885.86" y1="143.27" x2="887.23" y2="151.62"/>
    <line class="cls-9" x1="896.16" y1="139.21" x2="901.7" y2="146.4"/>
    <line class="cls-9" x1="907.49" y1="128.65" x2="914.79" y2="133.75"/>
    <line class="cls-9" x1="912.02" y1="117.74" x2="919.82" y2="120.06"/>
    <line class="cls-9" x1="912.02" y1="102.07" x2="920.83" y2="100.45"/>
    <line class="cls-9" x1="907.49" y1="92.21" x2="914.79" y2="86.99"/>
    <line class="cls-9" x1="896.79" y1="81.65" x2="901.07" y2="75.49"/>
    <line class="cls-9" x1="885.86" y1="77.71" x2="888.29" y2="69.23"/>
    <path class="cls-9" d="m831.1,119.36c.55-.54,1.53-.52,2.17-.16.82.47,1.26,1.61.66,2.35-.55.68-1.72.72-2.45.22-.81-.55-1.04-1.75-.38-2.41Z"/>
    <path class="cls-9" d="m830.63,99.91c.55-.54,1.53-.52,2.17-.16.82.47,1.26,1.61.66,2.35-.55.68-1.72.72-2.45.22-.81-.55-1.04-1.75-.38-2.41Z"/>
    <path class="cls-9" d="m849.97,73.01c.55-.54,1.53-.52,2.17-.16.82.47,1.26,1.61.66,2.35-.55.68-1.72.72-2.45.22-.81-.55-1.04-1.75-.38-2.41Z"/>
    <path class="cls-9" d="m864.76,67.53c.55-.54,1.53-.52,2.17-.16.82.47,1.26,1.61.66,2.35-.55.68-1.72.72-2.45.22-.81-.55-1.04-1.75-.38-2.41Z"/>
    <g class="cls-5">
      <path class="cls-10" d="m822.18,106.46c-1.74-.45-3.62.05-4.78,1.2-1.79,1.76-1.59,4.77.25,6.5,1.5,1.4,4.16,2.03,6.17.81,1.99-1.21,2.27-3.6,1.76-5.22-.1-.33-.87-2.63-3.4-3.28Z"/>
      <path class="cls-10" d="m829.1,106.49c-2.32,3.14-1.95,8.07,1.26,10.33,2.03,1.42,4.48,1.29,5.36,1.2v-14.9h-.45c-.8.11-4.17.66-6.17,3.37Z"/>
      <path class="cls-10" d="m875.69,158.57c-.35.1-2.83.84-3.51,3.18-.46,1.61.12,3.34,1.37,4.39,1.94,1.62,5.2,1.39,7.04-.33,1.49-1.4,2.14-3.87.78-5.7-1.35-1.82-3.94-2.03-5.69-1.54Z"/>
      <path class="cls-10" d="m868.36,149.33v.41c.14.74.79,3.84,3.75,5.63,3.45,2.09,8.78,1.67,11.18-1.32,1.51-1.89,1.33-4.15,1.22-4.96l-16.15.24Z"/>
      <path class="cls-10" d="m936.13,107.62c-1.51-1.39-4.18-2-6.17-.76-1.98,1.23-2.23,3.61-1.71,5.24.11.33.89,2.62,3.43,3.26,1.75.44,3.62-.08,4.77-1.23,1.77-1.78,1.55-4.79-.31-6.5Z"/>
      <path class="cls-10" d="m923.4,105.05c-2.04-1.41-4.49-1.26-5.37-1.16l.14,14.9h.45c.8-.12,4.16-.7,6.13-3.42,2.29-3.16,1.87-8.09-1.36-10.32Z"/>
      <path class="cls-10" d="m878.46,62.64c.35-.1,2.84-.83,3.53-3.17.47-1.61-.1-3.34-1.35-4.4-1.93-1.63-5.19-1.42-7.04.3-1.5,1.39-2.16,3.86-.82,5.69,1.33,1.82,3.92,2.05,5.68,1.57Z"/>
      <path class="cls-10" d="m882.02,65.85c-3.43-2.11-8.77-1.71-11.19,1.27-1.52,1.88-1.35,4.14-1.25,4.95l16.16-.16v-.41c-.13-.74-.77-3.84-3.72-5.65Z"/>
    </g>
    <path class="cls-9" d="m900.45,73.21c.55-.54,1.53-.52,2.17-.16.82.47,1.26,1.61.66,2.35-.55.68-1.72.72-2.45.22-.81-.55-1.04-1.75-.38-2.41Z"/>
    <path class="cls-9" d="m887.35,66.84c.55-.54,1.53-.52,2.17-.16.82.47,1.26,1.61.66,2.35-.55.68-1.72.72-2.45.22-.81-.55-1.04-1.75-.38-2.41Z"/>
    <path class="cls-9" d="m914.56,85.02c.55-.54,1.53-.52,2.17-.16.82.47,1.26,1.61.66,2.35-.55.68-1.72.72-2.45.22-.81-.55-1.04-1.75-.38-2.41Z"/>
    <path class="cls-9" d="m920.87,98.94c.55-.54,1.53-.52,2.17-.16.82.47,1.26,1.61.66,2.35-.55.68-1.72.72-2.45.22-.81-.55-1.04-1.75-.38-2.41Z"/>
    <path class="cls-9" d="m914.71,133.32c.55-.54,1.53-.52,2.17-.16.82.47,1.26,1.61.66,2.35-.55.68-1.72.72-2.45.22-.81-.55-1.04-1.75-.38-2.41Z"/>
    <path class="cls-9" d="m920.21,119.32c.55-.54,1.53-.52,2.17-.16.82.47,1.26,1.61.66,2.35-.55.68-1.72.72-2.45.22-.81-.55-1.04-1.75-.38-2.41Z"/>
    <path class="cls-9" d="m901.16,146.29c.55-.54,1.53-.52,2.17-.16.82.47,1.26,1.61.66,2.35-.55.68-1.72.72-2.45.22-.81-.55-1.04-1.75-.38-2.41Z"/>
    <path class="cls-9" d="m886.41,151.89c.55-.54,1.53-.52,2.17-.16.82.47,1.26,1.61.66,2.35-.55.68-1.72.72-2.45.22-.81-.55-1.04-1.75-.38-2.41Z"/>
    <path class="cls-9" d="m850.96,146.13c.55-.54,1.53-.52,2.17-.16.82.47,1.26,1.61.66,2.35-.55.68-1.72.72-2.45.22-.81-.55-1.04-1.75-.38-2.41Z"/>
    <path class="cls-9" d="m865.14,151.91c.55-.54,1.53-.52,2.17-.16.82.47,1.26,1.61.66,2.35-.55.68-1.72.72-2.45.22-.81-.55-1.04-1.75-.38-2.41Z"/>
    <path class="cls-9" d="m836.97,133.35c.55-.54,1.53-.52,2.17-.16.82.47,1.26,1.61.66,2.35-.55.68-1.72.72-2.45.22-.81-.55-1.04-1.75-.38-2.41Z"/>
  </g>
</svg>