<?xml version="1.0" encoding="UTF-8"?>
<svg xmlns="http://www.w3.org/2000/svg" xmlns:xlink="http://www.w3.org/1999/xlink" viewBox="0 0 1047.99 89.9">
  <defs>
    <style>
      .cls-1 {
        fill: url(#Nueva_muestra_de_degradado_1-3);
      }

      .cls-2 {
        isolation: isolate;
      }

      .cls-3 {
        fill: #c9c9c9;
      }

      .cls-4 {
        opacity: .58;
      }

      .cls-5 {
        opacity: .49;
      }

      .cls-5, .cls-6, .cls-7 {
        mix-blend-mode: screen;
      }

      .cls-8 {
        fill: url(#Nueva_muestra_de_degradado_1-4);
      }

      .cls-9 {
        fill: url(#Nueva_muestra_de_degradado_1-2);
      }

      .cls-10 {
        fill: none;
        stroke: #717171;
        stroke-miterlimit: 1;
        stroke-width: .59px;
      }

      .cls-6 {
        fill: url(#linear-gradient-3);
        opacity: .7;
      }

      .cls-7 {
        fill: url(#linear-gradient-2);
        opacity: .51;
      }

      .cls-11 {
        fill: url(#linear-gradient);
      }

      .cls-12 {
        fill: url(#Nueva_muestra_de_degradado_1);
      }
    </style>
    <linearGradient id="linear-gradient" x1="521.99" y1="75.93" x2="521.99" y2="14.93" gradientUnits="userSpaceOnUse">
      <stop offset="0" stop-color="#656565"/>
      <stop offset=".62" stop-color="#1b1b1b"/>
      <stop offset=".63" stop-color="#545454"/>
      <stop offset=".98" stop-color="#3e3e3e"/>
    </linearGradient>
    <linearGradient id="linear-gradient-2" x1="521.99" y1="75.93" x2="521.99" y2="14.93" gradientUnits="userSpaceOnUse">
      <stop offset="0" stop-color="#0e0e0e"/>
      <stop offset=".5" stop-color="#000"/>
      <stop offset=".52" stop-color="#010101"/>
      <stop offset=".73" stop-color="#0b0b0b"/>
      <stop offset="1" stop-color="#0e0e0e"/>
    </linearGradient>
    <linearGradient id="linear-gradient-3" x1="521.99" y1="14.93" x2="521.99" y2="75.93" gradientUnits="userSpaceOnUse">
      <stop offset="0" stop-color="#fff" stop-opacity=".77"/>
      <stop offset=".2" stop-color="#fff" stop-opacity=".65"/>
      <stop offset=".34" stop-color="#fff" stop-opacity=".65"/>
      <stop offset=".35" stop-color="#fff" stop-opacity=".65"/>
      <stop offset=".37" stop-color="#fff" stop-opacity=".62"/>
      <stop offset=".4" stop-color="#fff" stop-opacity=".53"/>
      <stop offset=".43" stop-color="#fff" stop-opacity=".39"/>
      <stop offset=".47" stop-color="#fff" stop-opacity=".2"/>
      <stop offset=".51" stop-color="#fff" stop-opacity="0"/>
      <stop offset=".59" stop-color="#7d7d7d" stop-opacity=".09"/>
      <stop offset="1" stop-color="#1b1b1b" stop-opacity=".16"/>
    </linearGradient>
    <linearGradient id="Nueva_muestra_de_degradado_1" data-name="Nueva muestra de degradado 1" x1=".49" y1="45.16" x2="37.49" y2="45.16" gradientUnits="userSpaceOnUse">
      <stop offset="0" stop-color="#fff"/>
      <stop offset="1" stop-color="#000"/>
    </linearGradient>
    <linearGradient id="Nueva_muestra_de_degradado_1-2" data-name="Nueva muestra de degradado 1" x1="469.04" y1="44.75" x2="506.04" y2="44.75" gradientTransform="translate(1498.8) rotate(-180) scale(1 -1)" xlink:href="#Nueva_muestra_de_degradado_1"/>
    <linearGradient id="Nueva_muestra_de_degradado_1-3" data-name="Nueva muestra de degradado 1" x1="79.04" y1="44.75" x2="231.94" y2="44.75" gradientTransform="translate(1066.67) rotate(-180) scale(.24 -1)" xlink:href="#Nueva_muestra_de_degradado_1"/>
    <linearGradient id="Nueva_muestra_de_degradado_1-4" data-name="Nueva muestra de degradado 1" x1="18.12" y1="44.94" x2="55.12" y2="44.94" xlink:href="#Nueva_muestra_de_degradado_1"/>
  </defs>
  <g class="cls-2">
    <g id="Capa_2" data-name="Capa 2">
      <g id="Capa_6" data-name="Capa 6">
        <g>
          <rect class="cls-11" x="24.49" y="14.93" width="995" height="61"/>
          <rect class="cls-7" x="24.49" y="14.93" width="995" height="61"/>
          <rect class="cls-6" x="24.49" y="14.93" width="995" height="61"/>
          <g class="cls-5">
            <path d="m24.85,75.58c0-18.98,0-37.97,0-56.95,0-.58-.34-2.53,0-3,.41-.58-.31.25.06.02.18-.11.68.03.89,0,1.47-.19,3.09,0,4.57,0h52.87c32.57,0,65.14,0,97.72,0h277.56c51.34,0,102.67,0,154.01,0h361.47c14.37,0,28.9.62,43.26,0,.28-.01,2.26.12,1.88-.28.86.88,0,6.9,0,8.06v49.49c0,2.52.7,2.08-1.02,2.29-4.25.51-8.89,0-13.17,0h-26.81c-29.47,0-58.93,0-88.4,0H24.85s0,.73,0,.73h872.12c27.27,0,54.54,0,81.81,0h25.37c4.36,0,8.96.43,13.3,0,.55-.05,1.13,0,1.69,0,0,0,0-.36,0-.36V15.29s0-.36,0-.36H147.02c-27.27,0-54.54,0-81.81,0h-25.37c-4.36,0-8.96-.43-13.3,0-.55.05-1.13,0-1.69,0,0,0,0,.36,0,.36v60.29c0,.4,0,.42,0,0Z"/>
          </g>
          <rect class="cls-10" x="24.49" y="14.93" width="995" height="61"/>
          <g class="cls-4">
            <path d="m1019.49,75.87H29.61c-1.1,0-3.3.44-4.33,0-1.52-.65-.79-2.11-.79-4.28,0-11.35,0-22.69,0-34.04,0-5.4,0-10.81,0-16.21,0-.9-.59-5.77,0-6.35.24-.23,1.88,0,2.18,0h195.42c45.81,0,91.61,0,137.42,0,50.68,0,101.35,0,152.03,0h152.92c46.7,0,93.4,0,140.1,0,38.31,0,76.61,0,114.92,0,25.32,0,50.64,0,75.95,0h19.09c1.04,0,3.31-.45,4.26,0,1.5.7.69,3.41.69,5.42,0,18.51,0,37.01,0,55.52,0,.07,0,.07,0,0V14.93s0-.06,0-.06h-26.79c-24.09,0-48.18,0-72.27,0-35.71,0-71.43,0-107.14,0h-273.39c-48.33,0-96.66,0-145,0H39.49c-4.35,0-8.98-.45-13.31,0-.55.06-1.14,0-1.69,0,0,0,0,.06,0,.06v61s0,.06,0,.06h26.79c24.09,0,48.18,0,72.27,0,35.71,0,71.43,0,107.14,0h130.72c47.56,0,95.12,0,142.67,0h145c44.76,0,89.52,0,134.27,0h195.75c12.86,0,25.84.51,38.7,0,.56-.02,1.13,0,1.69,0,0,0,0-.12,0-.12Z"/>
          </g>
        </g>
        <g>
          <polygon class="cls-12" points="37.11 .93 .49 44.93 37.49 89.39 37.49 77.85 10.71 45.66 36.95 14.13 37.11 .93"/>
          <path class="cls-3" d="m36.76.58c-1.21,1.46-2.42,2.91-3.64,4.37-2.91,3.5-5.82,7-8.73,10.49-3.52,4.23-7.05,8.47-10.57,12.7l-9.18,11.02c-1.48,1.77-3.03,3.51-4.44,5.33-.02.03-.04.05-.06.07-.19.22-.19.48,0,.71,1.23,1.48,2.46,2.96,3.7,4.44l8.83,10.61c3.56,4.28,7.12,8.55,10.68,12.83l9.23,11.09,3.05,3.67c.47.57.92,1.21,1.44,1.73.02.02.04.05.07.08.29.34.85.05.85-.35v-11.26c0-.62-.42-.97-.8-1.43l-2.63-3.15c-2.96-3.55-5.92-7.11-8.87-10.66-3.15-3.79-6.31-7.58-9.46-11.37l-3.41-4.1c-.54-.64-1.05-1.46-1.68-2.02-.03-.02-.05-.06-.07-.09v.71c1.46-1.76,2.93-3.52,4.39-5.27,3.16-3.8,6.33-7.6,9.49-11.4s6.04-7.25,9.05-10.88l2.68-3.22c.19-.23.39-.45.57-.69.19-.26.21-.47.21-.78l.15-12.47v-.37c.01-.64-.99-.64-1,0-.05,3.85-.1,7.71-.14,11.56,0,.55-.01,1.09-.02,1.64l.15-.35c-2.97,3.57-5.94,7.14-8.92,10.71-4.7,5.65-9.4,11.29-14.1,16.94-1.08,1.29-2.15,2.58-3.23,3.88-.19.22-.19.48,0,.71,3.04,3.65,6.07,7.3,9.11,10.94,4.8,5.77,9.6,11.53,14.4,17.3,1.09,1.31,2.19,2.63,3.28,3.94l-.15-.35v11.54l.85-.35c-1.23-1.48-2.46-2.96-3.7-4.44-2.94-3.54-5.89-7.07-8.83-10.61-3.56-4.28-7.12-8.55-10.68-12.83l-9.23-11.09-3.05-3.67c-.46-.55-.9-1.27-1.44-1.73-.02-.02-.04-.05-.07-.08v.71c1.21-1.46,2.42-2.91,3.64-4.37,2.91-3.5,5.82-7,8.73-10.49,3.52-4.23,7.05-8.47,10.57-12.7l9.18-11.02c1.48-1.77,3.03-3.51,4.44-5.33.02-.03.04-.05.06-.07.41-.49-.29-1.2-.71-.71Z"/>
        </g>
        <g>
          <polygon class="cls-9" points="991.78 .52 1028.49 44.52 991.39 88.98 991.39 77.44 1018.25 45.25 991.94 13.72 991.78 .52"/>
          <path class="cls-3" d="m991.42.87c1.22,1.46,2.44,2.92,3.66,4.39,2.92,3.5,5.83,6.99,8.75,10.49,3.54,4.24,7.08,8.49,10.62,12.73,3.05,3.66,6.1,7.31,9.15,10.97l3.02,3.62c.46.55.9,1.27,1.45,1.73.02.02.04.05.06.07v-.71c-1.24,1.48-2.47,2.96-3.71,4.44-2.95,3.54-5.9,7.07-8.86,10.61-3.57,4.28-7.14,8.55-10.71,12.83-3.09,3.7-6.17,7.4-9.26,11.09l-3.06,3.67c-.45.54-1.1,1.11-1.45,1.73-.02.03-.04.05-.07.08l.85.35v-11.54l-.15.35c3.03-3.64,6.07-7.27,9.1-10.91,4.81-5.76,9.61-11.52,14.42-17.28,1.11-1.33,2.22-2.66,3.33-4,.19-.22.19-.48,0-.71-2.98-3.57-5.96-7.14-8.94-10.71-4.71-5.65-9.42-11.29-14.14-16.94-1.08-1.29-2.16-2.58-3.24-3.88l.15.35c-.05-3.85-.1-7.71-.14-11.56,0-.55-.01-1.09-.02-1.64,0-.64-1.01-.64-1,0,.05,3.96.1,7.92.15,11.89,0,.43-.1,1.02.03,1.44.06.2.28.4.41.56l2.22,2.67c2.89,3.46,5.77,6.92,8.66,10.37,3.25,3.9,6.51,7.8,9.76,11.7l3.54,4.24c.57.68,1.11,1.53,1.77,2.12.03.03.05.07.08.1v-.71c-1.4,1.68-2.8,3.35-4.2,5.03-3.08,3.69-6.16,7.38-9.23,11.06s-6.16,7.38-9.23,11.06l-3.04,3.65c-.38.46-.89.92-1.19,1.43-.24.42-.11,1.14-.11,1.6v10.24c0,.4.57.7.85.35,1.24-1.48,2.47-2.96,3.71-4.44,2.95-3.54,5.9-7.07,8.86-10.61,3.57-4.28,7.14-8.55,10.71-12.83,3.09-3.7,6.17-7.4,9.26-11.09,1.5-1.8,3.08-3.55,4.51-5.4.02-.03.04-.05.07-.08.19-.22.19-.48,0-.71-1.22-1.46-2.44-2.92-3.66-4.39-2.92-3.5-5.83-6.99-8.75-10.49-3.54-4.24-7.08-8.49-10.62-12.73-3.05-3.66-6.1-7.31-9.15-10.97l-3.02-3.62c-.47-.57-.92-1.21-1.45-1.73-.02-.02-.04-.05-.06-.07-.41-.49-1.12.22-.71.71Z"/>
        </g>
        <g>
          <polygon class="cls-1" points="1010.78 .52 1047.49 44.52 1010.39 88.98 1010.39 77.44 1037.25 45.25 1010.94 13.72 1010.78 .52"/>
          <path class="cls-3" d="m1010.42.87c1.22,1.46,2.44,2.92,3.66,4.39,2.92,3.5,5.83,6.99,8.75,10.49,3.54,4.24,7.08,8.49,10.62,12.73,3.05,3.66,6.1,7.31,9.15,10.97l3.02,3.62c.46.55.9,1.27,1.45,1.73.02.02.04.05.06.07v-.71c-1.24,1.48-2.47,2.96-3.71,4.44-2.95,3.54-5.9,7.07-8.86,10.61-3.57,4.28-7.14,8.55-10.71,12.83-3.09,3.7-6.17,7.4-9.26,11.09l-3.06,3.67c-.45.54-1.1,1.11-1.45,1.73-.02.03-.04.05-.07.08l.85.35v-11.54l-.15.35c3.03-3.64,6.07-7.27,9.1-10.91,4.81-5.76,9.61-11.52,14.42-17.28,1.11-1.33,2.22-2.66,3.33-4,.19-.22.19-.48,0-.71-2.98-3.57-5.96-7.14-8.94-10.71-4.71-5.65-9.42-11.29-14.14-16.94-1.08-1.29-2.16-2.58-3.24-3.88l.15.35c-.05-3.85-.1-7.71-.14-11.56,0-.55-.01-1.09-.02-1.64,0-.64-1.01-.64-1,0,.05,3.96.1,7.92.15,11.89,0,.43-.1,1.02.03,1.44.06.2.28.4.41.56l2.22,2.67c2.89,3.46,5.77,6.92,8.66,10.37,3.25,3.9,6.51,7.8,9.76,11.7l3.54,4.24c.57.68,1.11,1.53,1.77,2.12.03.03.05.07.08.1v-.71c-1.4,1.68-2.8,3.35-4.2,5.03-3.08,3.69-6.16,7.38-9.23,11.06s-6.16,7.38-9.23,11.06l-3.04,3.65c-.38.46-.89.92-1.19,1.43-.24.42-.11,1.14-.11,1.6v10.24c0,.4.57.7.85.35,1.24-1.48,2.47-2.96,3.71-4.44,2.95-3.54,5.9-7.07,8.86-10.61,3.57-4.28,7.14-8.55,10.71-12.83,3.09-3.7,6.17-7.4,9.26-11.09,1.5-1.8,3.08-3.55,4.51-5.4.02-.03.04-.05.07-.08.19-.22.19-.48,0-.71-1.22-1.46-2.44-2.92-3.66-4.39-2.92-3.5-5.83-6.99-8.75-10.49-3.54-4.24-7.08-8.49-10.62-12.73-3.05-3.66-6.1-7.31-9.15-10.97l-3.02-3.62c-.47-.57-.92-1.21-1.45-1.73-.02-.02-.04-.05-.06-.07-.41-.49-1.12.22-.71.71Z"/>
        </g>
        <g>
          <polygon class="cls-8" points="54.74 .71 18.12 44.71 55.12 89.17 55.12 77.63 28.33 45.44 54.57 13.91 54.74 .71"/>
          <path class="cls-3" d="m54.38.36c-1.21,1.46-2.42,2.91-3.64,4.37-2.91,3.5-5.82,7-8.73,10.49-3.52,4.23-7.05,8.47-10.57,12.7l-9.18,11.02c-1.48,1.77-3.03,3.51-4.44,5.33-.02.03-.04.05-.06.07-.19.22-.19.48,0,.71,1.23,1.48,2.46,2.96,3.7,4.44l8.83,10.61c3.56,4.28,7.12,8.55,10.68,12.83l9.23,11.09,3.05,3.67c.47.57.92,1.21,1.44,1.73.02.02.04.05.07.08.29.34.85.05.85-.35v-11.26c0-.62-.42-.97-.8-1.43l-2.63-3.15c-2.96-3.55-5.92-7.11-8.87-10.66-3.15-3.79-6.31-7.58-9.46-11.37l-3.41-4.1c-.54-.64-1.05-1.46-1.68-2.02-.03-.02-.05-.06-.07-.09v.71c1.46-1.76,2.93-3.52,4.39-5.27l9.49-11.4c3.02-3.63,6.04-7.25,9.05-10.88l2.68-3.22c.19-.23.39-.45.57-.69.19-.26.21-.47.21-.78l.15-12.47v-.37c.01-.64-.99-.64-1,0-.05,3.85-.1,7.71-.14,11.56,0,.55-.01,1.09-.02,1.64l.15-.35c-2.97,3.57-5.94,7.14-8.92,10.71-4.7,5.65-9.4,11.29-14.1,16.94-1.08,1.29-2.15,2.58-3.23,3.88-.19.22-.19.48,0,.71,3.04,3.65,6.07,7.3,9.11,10.94,4.8,5.77,9.6,11.53,14.4,17.3,1.09,1.31,2.19,2.63,3.28,3.94l-.15-.35v11.54l.85-.35c-1.23-1.48-2.46-2.96-3.7-4.44l-8.83-10.61c-3.56-4.28-7.12-8.55-10.68-12.83l-9.23-11.09-3.05-3.67c-.46-.55-.9-1.27-1.44-1.73-.02-.02-.04-.05-.07-.08v.71c1.21-1.46,2.42-2.91,3.64-4.37,2.91-3.5,5.82-7,8.73-10.49l10.57-12.7,9.18-11.02c1.48-1.77,3.03-3.51,4.44-5.33.02-.03.04-.05.06-.07.41-.49-.29-1.2-.71-.71Z"/>
        </g>
      </g>
    </g>
  </g>
</svg>