<?xml version="1.0" encoding="UTF-8"?>
<svg id="Capa_2" data-name="Capa 2" xmlns="http://www.w3.org/2000/svg" viewBox="0 0 713.78 156">
  <defs>
    <style>
      .cls-1, .cls-2, .cls-3 {
        fill: #fff;
      }

      .cls-2 {
        opacity: .8;
      }

      .cls-4 {
        fill: #333;
      }

      .cls-3 {
        opacity: .74;
      }

      .cls-5 {
        opacity: .79;
      }
    </style>
  </defs>
  <g id="Capa_3" data-name="Capa 3">
    <g class="cls-5">
      <path class="cls-4" d="m712.09,78.5l-149,48-363-28s-4.49,24.85.51,25.89-13,23.39-26,3.17c-13-20.22,0-34.15,0-34.15h-97s0,3.26,0,3.26h-20s-17-4.23-17-18.07c0-13.84,0-11.1,0-11.1,0,0,10-12.32,20-12.32,10,0,15.04,0,15.04,0l1.96,4.26,96.99-.45s-16-19,6-38c2.93-2.53,15-4,21,7,.48.88.29,2-1,2-5,0-.5,27.5-.5,27.5l355.97-25.55,156.03,46.55Z"/>
      <g>
        <path class="cls-1" d="m711.9,79.14c.8.15.42-.17-1.73-.77l-1.61-.14,3.34.91Z"/>
        <path class="cls-1" d="m697.69,74.26c-2.56-.6-5.54-1.19-4-.41,2.58.44,3.15.75,5.94,1.18,2.15.6,3.7,1.22,3.31,1.23.78.14,3.3,1.06,4.51,1.21-2.71-1.08-6.23-2.14-9.98-3.03-.77-.31.02-.16.22-.16Z"/>
        <path class="cls-1" d="m485.86,36.52l1.4-.06c-.38,0-.87.03-1.4.06Z"/>
        <path class="cls-1" d="m351.02,46.02c1.03-.08,1.45-.15,1.5-.18-.95.09-1.73.17-1.5.18Z"/>
        <path class="cls-1" d="m327.98,47.31c.49-.03.91-.05,1.36-.07-.52,0-1.04.03-1.36.07Z"/>
        <path class="cls-1" d="m485.86,36.52l-3.61.15c-.24.13,1.85-.05,3.61-.15Z"/>
        <path class="cls-1" d="m668.63,66.42c.73.2,1.34.35,1.9.48-.6-.17-1.18-.33-1.78-.49-.04,0-.07.01-.13.02Z"/>
        <path class="cls-1" d="m545.27,31.99l1.09-.08c.32-.06.62-.13.9-.2l-1.99.28Z"/>
        <path class="cls-1" d="m589.79,41.2c-.99-.31-1.41-.14-1.83-.14.59.06,1.34.22,2.22.46.03-.05-.08-.15-.39-.32Z"/>
        <path class="cls-1" d="m659.14,62.4l1.24.33c-.32-.09-.87-.23-1.24-.33Z"/>
        <path class="cls-1" d="m512.62,34.27c-.08-.04-.25-.06-.42-.07,0,.04.17.06.42.07Z"/>
        <path class="cls-1" d="m661.23,93.5s.02.03.02.05c.24-.11.32-.15-.02-.05Z"/>
        <path class="cls-1" d="m712.11,78.57l-.69.24c-.06.07-.12.15-.1.2l.8-.44Z"/>
        <path class="cls-1" d="m285.83,49.97c.08,0,.11,0,.19,0,1.11-.11.48-.06-.19,0Z"/>
        <path class="cls-1" d="m78.87,94.58c-.07-.01-.13-.02-.14-.03-.06.24-.12.17-.17-.17.12-.03.33-.06.56-.09.46-.03.91-.07,1.18-.09.3-.03.41-.06.16-.1-.12-.02-.33-.04-.65-.06-.26-.02-.61-.04-1.06-.07.13.03-.16.09-.44.15.03.22.07.44.11.61.02.09.04.16.06.22.01.03.02.05.03.07,0,.02.02.12.03.16.02.1.04.14.06.11,0-.02.02-.05.03-.11,0-.05.02-.17.03-.17.04-.09.07-.24.1-.45.02,0,.07.01.12.02Z"/>
        <path class="cls-1" d="m667.51,66.05c-.59-.18-1.19-.35-1.8-.53.82.25,1.37.42,1.8.53Z"/>
        <path class="cls-1" d="m78.75,93.98h0s-.47-.03-.47-.03c.19.01.3.02.47.03Z"/>
        <path class="cls-1" d="m199.87,46.22c-.03.2-.03.59-.03.99.03-.04.04-.26.03-.99Z"/>
        <path class="cls-1" d="m261.11,52.32l-1.79.09c.71-.03,1.29-.06,1.79-.09Z"/>
        <path class="cls-1" d="m187.37,18.41c-.51-.04-.85,0-1.25,0-.39,0-.83.04-1.52.18.13,0,.26-.02.43-.03.25-.06.54-.11.92-.13.38-.01.84-.08,1.42-.02Z"/>
        <path class="cls-1" d="m169.04,49.49c-.04-.21-.09-.49-.13-.73-.1-.39-.19-.85-.28-1.25.11.67.24,1.33.41,1.98Z"/>
        <path class="cls-1" d="m547.69,124.12c.85.14,1.38.27,1.78.39-.59-.25,5.16.13-1.78-.39Z"/>
        <path class="cls-1" d="m668.66,66.26c-.24,0-.57-.06-1.15-.22.43.12.85.24,1.25.36.12,0,.16-.04-.1-.14Z"/>
        <path class="cls-1" d="m185.9,20.68c-.47.03-.93.12-1.39.18-.44.12-.92.18-1.33.35-.21.08-.43.14-.62.22l-.56.27c-.17.1-.29.21-.45.3-.16.12-.37.32-.55.48.16-.14.32-.29.49-.44.14-.09.27-.18.41-.28.34-.17.7-.37,1.14-.5.85-.32,1.86-.49,2.86-.59Z"/>
        <path class="cls-1" d="m267.44,102.55l1.43.08c-.55-.05-1.05-.08-1.43-.08Z"/>
        <path class="cls-1" d="m171.22,36.93c-.18.49-.34,1.01-.5,1.54-.12.54-.25,1.09-.35,1.66,0,.25-.01.53,0,.69.14-1.33.48-2.62.85-3.89Z"/>
        <path class="cls-1" d="m549.49,124.52s-.01,0-.01,0c0,0,0,0,.01,0Z"/>
        <path class="cls-1" d="m588.57,116.61c-5.65,1.81-2.54,1.2-3.67,1.79-6.71,2.27-3.2.75-5.55,1.3-4.18,1.45-7.3,2.81-10.44,3.81-.25.02-.87.19-.18-.11-.77.3-1.68.63-2.69.98-.95.32-1.99.67-3.07,1.03-2.13-.15-4.42-.32-6.61-.47-2.26-.15-4.4-.26-6.16-.28-.4-.06-.6-.11-.7-.15.86.25.99.45.8.57-2.65-.2-4.94-.15-5.92-.46,1.62.13,1.77.05,2.53.03l-2.79-.11c-2.47-.54,3.8.17,3.82-.08-5.43-.31-11.76-.51-15.9-.92-.84-.41,9.71.63,4.2-.09l6.41.62c-4.87-.91,3.9.34-.57-.58-8.44-.75-9.47-.56-17.89-1.31-1.91.04.61.33-1.31.37-12.01-.59-9.37-1.58-18.21-1.81-2.3.05-3.22.41-9.47-.3l2.17-.22c-8.18-.67-4.71.19-13.26-.73,1.53-.03,6.44.37,5.21.23-5.53-.73-3.94-.09-8.21-.41l-.86-.41c-8.72-.56-18.33-1.18-27.99-1.8.54-.06,2.2-.04-.05-.32-12.18-.77-25.97-2.05-37.7-3.15l-4.51-.05c-1.04-.08-1.93-.28-.79-.25-4.57-.46-.25.17-2.46.11-2.6-.18-3.43-.43-1.77-.39-8.09-.37-23.04-1.24-31.52-2.21l1.67.04c-6.61-.63-7.52.02-13.64-.72l1.18.04c-14.36-1.24-30.27-2.19-41.2-3.48-2.12.26-14.21-1.29-15.18-.77-8.19-.92-5.83-.85-17.37-1.94-3.08-.27-4.63.01-8.45-.22l-.07-.31-5.21-.08-2.73-.58-3.59-.2c1.43.13,3.02.37,2.8.44-2.8-.15-6.21-.46-8.92-.76s-4.75-.59-4.82-.67l-13.25-.76c.3-.1,2.52.03,4.28.08-7.09-.23-1.26-.42-7.75-.63.86.14-.48.15-.63.2-3.21-.43-10.55-1-15.99-1.34l1.06-.13c-4.9-.41-10.08-.78-15.4-1.16-2.66-.19-5.36-.38-8.08-.58l-1.47-.11-.93-.06-.46-.03c-.15,0-.35-.08-.32.15-.21,1.14-.47,2.73-.53,3.16-.21,1.37-.41,2.75-.59,4.13.65-3.95.88-2.98.47.25l-.48,1.25c-.05,2.11.53-3.37.26.95-.47,4.13-.66,2.75-.52.35-.15,1.68-.26,3.37-.33,5.06-.12.29-.09-.9-.19-1.22.07,2.08-1.02,8.77.77,12.18.01.12.03.24.06.37.12.21.22.41.35.62.16.21.33.42.5.62.23.2.47.38.72.54.27.13.64.26.85.32.12-.58.37-.6.09-.46-.05.02-.19.08-.27.08-.19.04-.14.04-.14.04,0,.03,0,.08-.01.16-.04.31-.21.76-.43,1.18-.22.42-.48.84-.76,1.23-1.14,1.58-2.5,2.83-3.9,3.84-1.41,1.01-2.91,1.79-4.57,2.26-1.65.47-3.47.63-5.4.18-.1.12-.93,0-1.98-.42-1.06-.4-2.29-1.16-3.33-1.89-1.17-1.04-2.25-2.27-3.2-3.65-.98-1.36-1.75-2.95-2.63-4.49-1.55-3.19-2.9-6.67-3.47-10.45-.15-1.33-.26-2.09-.33-2.53-.08-.43-.07-.54-.12-.55-.06-.02-.13.33-.2-.89.07-.1.12-.65.17-1.36.08-.71.24-1.57.35-2.29.29-1.44.58-2.3.23-.37.47-2.54,1.15-4.5,1.93-6.26.21-.43.42-.86.63-1.28.22-.42.46-.82.7-1.23l.09-.15.17-.25.38-.54c.25-.36.51-.72.77-1.08.65-.76,1.31-1.53,2-2.34-.1-.01-.16-.04-.29-.05h-.44c-.29,0-.59,0-.9.01-.61,0-1.24.01-1.9.02-1.04.01-2.17.02-3.4.04-1.85.03-4.03.07-6.64.11,1.31.11,2.79.15,2.02.24-2.19.04-4.99-.11-4.68-.23l.58-.03c-13.57.38-31.32-.75-42.13-.21l.61-.03-11.21.28c-5.16-.04,3.09-.19-.72-.35-6.04.21-10.82.2-15.33.16-2.25-.01-4.44-.02-6.69-.04-1.12,0-2.26.01-3.43.02-1.24.02-2.5.05-3.82.07-.61-.04-1.3-.07-2.25-.1-.03.82-.06,1.69-.09,2.62v.17s0,.02,0,.03v.05s-.03.09-.03.09l-.03.15-.18-.02h-.08s0-.02-.21-.02c-.61,0-1.25-.02-1.9-.03-1.31,0-2.69-.01-4.11-.02-2.85.02-5.9.03-8.93.05-.76,0-1.52,0-2.27.01h-.56s-.24,0-.24,0c-.02,0-.03,0-.05,0l-.42-.12-.51-.16c-1.35-.44-2.65-.97-3.86-1.57-2.42-1.19-4.45-2.64-5.88-4.1l.3.51c-1.02-.76-1.5-1.36-1.92-1.89-.39-.55-.7-1.05-1.18-1.82,0,.15.36.72.6,1.1.26.37.37.57-.15-.01-1.01-1.31-1.82-2.76-2.33-4.33-.51-1.59-.69-3.2-.68-4.97,0-1.81,0-3.62,0-5.44v-2.73s.01-1.37.01-1.37v-.69s0-.34,0-.34v-.09s0-.02,0-.02h0c-4.66-.01-1.29-.02-2.33-.02h0s0,.05,0,.05v.17s-.02,3.17-.02,3.17l2.09-2.43c2.02-2.36,4.37-4.6,6.87-6.52,2.5-1.94,5.24-3.59,8.15-4.49.72-.27,1.46-.36,2.19-.52.37-.08.73-.06,1.1-.09.38-.01.7-.07,1.13-.05l4.91.05c2.94.03,5.88.07,8.81.1v.03s.01.01.01.01h0s.06.13.06.13l.48,1.07c.46,1.02.92,2.04,1.38,3.05,1.97,0,3.91,0,5.85.01,8.54,0,4.84-.94,15.61-.57l-3.05.34c17.23-.48,35.23-.15,52.1-.56-1.01.08-1.03.18-2.68.19,1.78.11,5.08.1,7.93.03,1.43-.03,2.75-.08,3.71-.13.97-.05,1.58-.1,1.59-.15,2.63.01.61.17,2.23.27,3.57.13,8.97-.35,10.87-.12.32.04-1,.08-1.66.1.56-.03,1.43-.05,2.5-.06.94,0,1.95-.01,2.95-.02.5,0,1,0,1.5,0,.25,0,.49,0,.74,0h.36s.29-.03.29-.03c-.76-.94-1.55-1.88-2.12-2.62-.58-.76-.94-1.33-1.22-1.75-.1-.15-.18-.26-.24-.35-.05-.07-.09-.11-.11-.12-.04-.02-.01.08.1.34-2.99-5.27-4.27-10.94-3.47-15.69.03-1.57.66-4.11,1.62-6.23.95-2.13,2.08-3.86,2.19-4.4.08.31,1.56-1.92,3.79-4.26.57-.57,1.14-1.19,1.75-1.77.61-.55,1.25-1.2,1.79-1.64.12-.09.24-.18.35-.26.15-.08.29-.15.43-.23.27-.17.6-.26.88-.38.58-.21,1.13-.37,1.58-.47-.6.16.2.07.97,0,.78,0,1.52,0,.81.14,2.09-.12,4.09.26,5.41.67.68.17,1.17.39,1.49.48.31.1.43.1.29-.03,1.7.97,3.21,2.21,4.5,3.6.58.75,1.25,1.48,1.64,2.15.2.3.39.61.59.9.06.11.08.26,0,.38-.04.06-.09.09-.16.11-.03,0-.06.02-.1.02l-.27.05-.16.03c-.08.03-.18.09-.27.14-.17.1-.37.21-.5.34-.23.25-.5.53-.62.78-.58,1.03-.74,1.93-.91,2.78-.29,1.68-.39,3.13-.59,4.35.03,3.49.35,6.83.72,10.11.19,1.64.4,3.26.63,4.87.12.8.24,1.6.36,2.4.16,1,.32,2,.48,3l.08.48c.05.13-.02.41.21.32l.97-.07,1.69-.14c.79-.07,1.57-.13,2.35-.2,1.57-.13,3.12-.26,4.67-.39,3.1-.25,6.16-.5,9.2-.75-.41.48-13.46,1.01-12.9,1.45,11.54-1.01,18.17-1.88,29.63-2.59,2.97-.15-1.67.32-2.67.46,11.53-1.01,22.32-1.56,32.57-2.54-.03.04-1.13.17-2.17.28,2.02-.16,4.71-.27,4.47-.46l-1.97.2c-3.25-.06,7.99-1.2,8.34-1.38-3.39.83,10.15-.58,4.75.55,1.33-.13,2.99-.35,2.68-.47,1.98-.1,2.61-.07.62.23,7.24-.63,4.65-.66,11.22-1.13-.02.1-1.34.23-2.01.4,3.31-.43,6.64-.86,12.19-1.18-.33.08.32.12-1.34.23,9.53-.71,16.21-1.68,26.68-2.24-3.05.65,3.57-.11,4.15.22l5.61-.51-2.27-.02c4.93-.35,9.26-.93,13.5-1.11l-3.65.42,9.22-.73-5.23.23c4.97-.55-.57-.43,6-.8-1.33.13,4.93-.35,7.51-.31h-.02c2.43-.29,4.93-.6,8.57-.77.95.05-.73.47-.11.5,2.38-.48,11.53-.91,14.55-1.46-1.01.15-1.05.35-.71.37l2-.4c2.29-.08,2.62-.07,2.26.11,6.87-.45-2.21-.32,5.95-.7-.64.07-.33.08-1.66.22,8.19-.48,15.79-1.3,23.32-1.71,2.24.22-6.56.56-4,.7,10.83-.85,22.41-2.06,32.9-2.72l-1.96.1c1.42-.63,7.83-.3,13.12-.93-1.3.13-1.68.42-1.33.33,7.19-.43,14.68-1.18,25.55-2.13l-1.34.23c4.24-.18,11.15-.73,15.73-1,1.35-.23,3.96-.4,2.36-.48,14.15-.24,26.86-2.35,39.42-2.6-1.5.11-3.56.37-2.37.29l10.65-.89c-.86-.17-1.41-.04-3.66-.06,1.34-.23,4.34-.56,6.98-.74-4.78.5.07.37,2.15.35-.35-.05.35-.17.17-.23,3.89,0,2.83-.25,4.34-.5.61.12,1.79.45,3.97,1.19h-.42c2.75.76,5.31,1.35,8.25,2.27,1.15.62-2.94-.75-3.19-.59,4.14,1.22,8.31,1.95,11.98,3.32-1.77-.48-4.32-1.18-6.09-1.66,3.99,1.52,4.49,1.58,7.5,2.53l-.3-.1,6.97,2.23-1.76-.61c5.38.88,10.58,3.02,17.69,4.67-6.9-1.61-1.19-.09-1.8.04,1.76.61,4.44,1.51,3.64,1.36,3.37.75,5.45,1.83,10.2,2.87.18.16,3.52,1.06,2.71,1.07,4.31,1.21-.96-.46-.57-.47,6.7,1.65,15.42,5.02,25.05,7.42,8.25,2.27,9.86,2.4,17.51,4.51,2.52.92-2.2-.29-2.2-.29,4.1,1.37,7.22,2.28,11.16,3.33-.81-.15-.02.16,1.14.62,3.14.91,2.2.28,6.28,1.65-.74-.11-1.7-.21-3.24-.56,3.72.99,7.4,1.96,11.26,2.98.96.47-2.38-.44-3.76-.74,4.32,1.21,11.17,3.17,12.57,3.31l-2.73-.91c1.57.45.74.46-.43.16-3.74-.9-5.28-1.67-5.46-1.83l2.74.75c-2.63-1.38-10.96-3.17-16.42-4.84l2.4.28-5.72-1.35c-1.16-.46-1.91-.93.81-.18-3.87-1.37-3.52-.9-6.83-2.12-.36-.15-.19-.11.16-.03l-3.87-1.03c.78.14-.55-.47,1.79.29-6.82-2.28-11.19-3.01-13.7-4.09l.58.15c-9.6-2.72-1.01.02-8.28-1.78l-4.61-2.16h-1.03c-.98-.29-2.93-.9-2.53-.91-3.73-.89.59.31-1.6-.13-4.67-1.68-13.12-3.78-14.05-4.56-1.77-.29,4.49,1.53-.62.17-1.3-.93-5.88-1.66-10.15-3.18,1.41.14,5.47,1.5,1.21-.02-2.75-.34-8.41-2.61-12.09-3.62-.28.3-7.99-2.23-14.16-3.94.42,0-11.49-3.64-17.16-5.46h.19c-.22,0-.59-.06-1.08-.16-.24-.06-.52-.12-.82-.19-.32-.08-.67-.17-1.04-.27-.64.06-1.35.13-2.1.2-.72.06-1.48.12-2.25.19-1.54.13-3.13.26-4.56.37.16-.23.96-.38,3.37-.65l-4.19.3c-.98.19-2.29.34-5,.58l1.04-.35c-5.58.42-11.22,1.13-18.42,1.46-.39.28,5.76.3-1.82,1.02-.29-.12-.59-.33,1.39-.53-.65.06-2.31.28-3.63.32l3.02-.45c-3.28.13-1.7.32-4.31.48.04-.2-1.95,0-1.58-.18.67-.07,2.29-.08,3.28-.23-2.95.18-6.53.32-7.71.25.27.09.02.27-2.14.45-5.58.42-1.93-.1-5.19.03-1.34.23-4.91.35-4.99.65-1.63.12-1.95,0-2.58-.03-2.88.34-13.49,1.01-10.21,1.09l.74-.03c-.14.01-.3.03-.47.05h.02s-.02,0-.02,0c-9.45.97-19.68,1.25-29.07,2.05v-.1c-5.59.52-12.47.96-16.46,1.46-1.66.12-3.93.1-3.23-.07-4.28.38-4.76.53-10.96.81,4.3-.48-1.5-.05,4.41-.44-5.58.31-6.85.25-12.81.95,2.02-.4-4.22-.02-6.86.25l3.92-.1c-2.97.25-5.58.41-8.23.58l1.41-.43c-11.43.41-20.51,2.16-29.24,2.11-3,.45,6.2-.28,3.53.18-5.25.33-10.75.25-12.39.36-7.2.33-6.67.97-14.19,1.38.97.05,1.9.3-3.71.81-5.25.33-6.49-.03-3.18-.37,1.26-.1,1.87-.11,1.82-.06,1.69-.16,3.91-.38,1.83-.35l-.67.17c-2.61.07-9.83.6-8.15.28-3.96.4-1.68.32,1.26.17-6.74.31-10.52.75-17.45,1.13,1.11-.01,2.13.05,1.03.13-10.17.58-4.46.55-11.34,1.09-3.93.1,1.37-.53-5.55.12-4.24.18-.92-.25.76-.47-6.3.68-11.81.7-15.42.91l3.32-.33c-1.99.2-3.61.31-5.27.43l1.92.1c-1.96.1-3.61.22-3.58.12-2,.3,1.57.28-2.41.78-2.61.07-7.92.7-8.84.45,8.2-.48-.93-.25,6-.8-1.33.13-2.96.25-4.93.35-.3-.01.27-.08.81-.14-7.86.28-3.58.61-11.7,1.19,1.02-.25-1.91-.2-3.23-.07,3.27-.23,1.59.18-1.41.53-5.22.24-5.65.51-8.38.69l3.12-.16c-1.04.25-3.65.42-7.27.73-.32-.12,3.29-.33,1.99-.3-4.01.6-9.13.33-14.74.94-2.61.07-.28-.31-2.57-.23-6.28.68-6.84.25-13.45.91,1.92.1,2.25.02-2.39.59l10.87-.95-6.96.85c3.28-.23,6.92-.65,8.89-.75-3.31.43-2.98.35-1.39.43-4.52-.03-8.9.85-14.11.98l.12-.6c-3.91.15-7.38.47-11.13.83-1.88.17-3.83.35-5.94.55-1.06.08-2.16.17-3.31.26-.5.03-1.01.07-1.53.1l-.4.02c-.09.04-.06-.09-.08-.14l-.03-.21c.01.12.02.25.04.37h.36s.19,0,.19,0h.28s.82-.04.82-.04c-.29.08-1.04.16-1.32.2-.1.01-.21.02-.32.03h-.17s-.02-.09-.03-.15c-.04-.25-.08-.51-.12-.78-.24-1.79-.52-3.81-.74-5.44.23.28.06-1.76.05-3.16-.06.09-.25-1.75-.42-3.72-.17-1.97-.29-4.08-.49-4.53.06-1.5.17-2.99.4-4.42.12-.97.27-1.82.49-2.5.06-.16.12-.31.18-.46.07-.12.13-.24.2-.35.07-.06.13-.17.18-.2.08-.01.01-.09.26-.1l.27-.04.35-.08c.23-.08.45-.17.63-.31.38-.26.63-.68.7-1.1.09-.43.03-.86-.11-1.26-.16-.45-.36-.62-.54-.91-.37-.52-.72-1.05-1.1-1.57-.41-.46-.83-.95-1.29-1.47-.5-.49-1.05-.99-1.66-1.55-.67-.48-1.35-1.1-2.24-1.58,1.11.53.89.31.99.28.05-.01.17.03.57.29.39.26,1.09.68,2.09,1.67-.96-1.02-2.03-1.82-2.85-2.36-.85-.5-1.41-.81-1.47-.75-.36-.19-.98-.5-1.76-.79-.4-.12-.84-.25-1.3-.39-.46-.13-.96-.19-1.46-.3-2.01-.34-4.15-.24-5.43-.15-.57.13-.94.25-1.54.47-.3.1-.65.22-1.11.41-.46.18-1.02.41-1.71.86-.32.18-.04-.09-.04-.09.03.02-.28.22-.56.51-.28.28-.64.64-.93.94-.59.6-.92.99.11.2-3.22,2.48-7.13,6.97-9.14,12.3-1.03,2.64-1.55,5.42-1.65,7.96-.11,2.54.16,4.83.45,6.63.45,1.84,1.14,3.73,2,5.53.43.88.93,1.8,1.4,2.58.34.55.64.97.99,1.42,0,.03.11.1.04.09h-.14s-.27,0-.27,0c-.18,0-.36,0-.53,0-.38,0-.75,0-1.11.01-1.07,0-2.07.02-3.01.03.33-.06.02-.1,1-.08-7.2-.15-4.42.59-12.62.42-4.19-.3,4.35-.19,1.74-.3-1.14-.64-9.89.13-15.41-.22l1.34-.04c-4.22-.2-10.28.29-17.17.28,0,0,.33-.06.04-.1-4.71.35-13.62.5-20.25.63,2.06-.26,3.01-.15,1.75-.4-2.97.05.87.41-5.06.51-1.93-.13-6.21-.23-6.77-.51l5.59-.04c-2.87-.34-7.24.05-10.19,0l.38-.16c-3.79.04-5.93.14-7.93.24-1,.05-1.97.09-3.1.14-1.03.03-2.2.06-3.68.1-.3-.65-.65-1.4-1.04-2.24l.29.91c-.29-.54-.54-1.01-.76-1.42-.22-.44-.45-.9-.61-1.26-1.35,0-1.93-.07-2.8-.11-.86-.04-1.93-.06-3.82.05l-1.52-.39c-1.67.07-4.54.09-7.83.29-.42.05-.84.08-1.27.14-.41.1-.83.2-1.25.3-.42.08-.83.22-1.23.37l-1.21.43c-1.55.7-3.03,1.46-4.28,2.3,1.36-1.02,3.62-2.44,6.33-3.23.69-.15,1.37-.39,2.08-.45.7-.06,1.45-.18,2.09-.18,1.31-.05,2.56-.09,3.64-.13-.82,0-1.93,0-3.16,0-.31,0-.62,0-.94,0-.34.03-.68.05-1.03.08l-1.05.09c-.34.07-.68.15-1.01.22-2.68.62-4.89,1.83-5.6,2.35.29-.17.61-.35.93-.54.34-.16.69-.33,1.03-.5.69-.36,1.43-.6,2.09-.78-3.95,1.52-8.41,4.65-13.08,9.31.1-.42-1.16.6-2.89,2.56l1.28.45v-.13s0-.06,0-.06v-.03c.32,0-2.74,0-1.45,0h0s0,.01,0,.01v.02s0,.26,0,.26c0,.18,0,.35,0,.54,0,.36,0,.74-.01,1.13,0,.78-.01,1.6-.02,2.45-.01,1.69-.02,3.48-.03,5.2-.03,1.68-.04,3.47.24,4.96.25,1.49.63,2.72.92,3.54,1.36,2.81,3.45,5.14,5.84,7,2.4,1.86,5.09,3.32,7.97,4.44.72.28,1.45.54,2.22.77l.4.11c.15.04.33.02.46.02h.57s1.15.02,1.15.02c1.53.02,3.09.03,4.66.05,3.15.01,6.4.02,9.78.03-2.4-.3-1.41-.3.07-.31.37,0,.77,0,1.16,0,.45-.01.88-.03,1.24-.04.95-.04,1.43-.12,1.03-.27.24,0,.46,0,.64,0,0-1.65-.01-2.69-.02-3.28.36,0,.53.02.61.03l9.29.37c2.26.18-3,.13-2.71.27,6.9.05,2.89.26,7.46.42-.94-.22,2.4-.31,6.33-.23l-5.54-.28c9.64-.33,8.33.51,18.04.19l-3.07.19c4.98-.11,18.39,0,23.27-.49.88.07,2.05.24-.15.28,11.91.07,26.52-.52,35.77-.22l-.9.15c1.11-.02,2.08-.09,3.12-.14.52-.02,1.05-.04,1.64-.04h.23s.16,0,.16,0c.11,0,.21.02.31.04-.13.06-.38.15-.14.16.04,0,.11-.02.18-.03.04,0,.09-.01.13-.02h.08s0,.01-.01.03c-.2.37-.47.85-.75,1.34-.35.59-.65,1.22-.94,1.82-.31.59-.55,1.18-.78,1.71.26-.84.59-1.65.94-2.46-2.86,5.4-3.33,10.32-2.87,14.65.49,4.37,1.83,8.32,4.12,12.72-.1.04.11.59.51,1.45.43.85.95,2.05,1.77,3.3.8,1.25,1.82,2.56,2.95,3.7,1.12,1.15,2.37,2.09,3.45,2.72l-.18-.03c1.6.96,3.37,1.56,5.13,1.78,1.76.22,3.5.07,5.09-.36,3.19-.86,5.81-2.58,7.95-4.65,1.07-1.05,2.03-2.2,2.82-3.52.39-.67.75-1.37.97-2.24.1-.44.19-.92.07-1.54-.07-.31-.19-.66-.46-.96-.25-.31-.6-.51-.91-.61-.43-.11-.33-.11-.42-.13-.06,0-.11-.09-.18-.11-.07-.05-.13-.16-.21-.23-.07-.09-.13-.23-.2-.34-.25-.51-.45-1.15-.58-1.82-.28-1.36-.36-2.85-.39-4.38.11-1.91.31-4.48.66-7.46.17-1.49.37-3.08.61-4.74.12-.83.25-1.67.38-2.53.1-.59.2-1.2.3-1.81-.02-.16.16-.06.26-.08l.96.08c.91.07,1.82.15,2.74.22,1.83.15,3.66.3,5.47.44,3.61.3,7.1.6,10.21.91-1.9-.23.34-.32,2.56-.19,2.92.31,8.11.32,7.61.69l-1.04-.09c2.17.56,8.19.92,12.88,1.3l.81-.47c12.22,1.71,32.19,2.2,38.83,3.4,2.97.1,6.64.38,9.59.48l-.18.27c8.2.71,12.3,1.06,22.45,1.77l-2.08.04c5.72.46,7.29-.26,12.57.13l1.56.54c9.98.76,20.06,1.91,29.95,2.29-.17.05-.47.15-2.09.04,4.7.37,18.16,1.69,16.49.98.09.39,10.3.83,15.7,1.08l-.86.21c4.58,0,4.73-.09,11.09.3,1.5.15,1.3.32-.69.1,5.01.53,3.93.04,10,.66h-2.28c5.16.42,4.76.3,7.62.31,3.26.14,9.79.83,10.53,1.14.71-.1,3.55-.09,6.59.22.4.13-.71.1-1.27.09,8.62.86,12.86.67,18.78,1.4.12.1.5.18.99.24-6.86-.54-12.38-.98-11.86-.96-.02.26,5.52.73,1.08.74,4.46.15,12.1.32,17.49.85.26.05.51.09.71.14h-.56c1.24.11,2.36.17,3.42.21,1.72.18,2.81.29,4.47.42.62.26,6.34.6,9.11.83-.21-.3,3.41.03.04-.47.44.05-.52,0-2.36-.14-.42-.02-.91-.06-1.18-.06.05,0,.12,0,.19-.01-1.81-.13-4.18-.31-6.87-.51,2.19.03,4.48.08,7.53.47,1.43-.07,3.01-.14,3.89-.15,3.75.68,11.02,1.46,12.02,1.78,8.45.49,19.88,1.43,25.22,1.31,2.4.12,2.75.36,3.64.52-1.39-.05-3.03-.19-3.79-.17,4.81.23,14.21,1.04,15.38.76,6.03.63-3.42.08,4.89.66l-1.13.03c6.56.74,12.15,1.07,17.67,1.33,2.76.13,5.5.26,8.34.39,1.42.08,2.86.16,4.34.25,1.51.11,3.05.22,4.65.33.75-.24,1.52-.48,2.29-.72.75-.23,1.52-.46,2.3-.7,1.56-.47,3.19-.94,4.9-1.41-1.21.34-1.82.51-2.08.53,19.82-6.03,40.53-13.39,60.14-19.15,5.56-1.68,6.09-2.1,9.41-3.35l1.29-.1,5.66-2.19c8.1-2.88,14.4-3.86,24.61-7.66l-1.4.24c3.73-1.16,11.75-3.91,11.2-3.49.37-.16,1.16-.59,2.64-.96l.16.11,9.06-3.2c7.12-2.17-.92.95,9.43-2.35,3.82-1.3,10.8-3.96,9.33-3.6-1.55.49-3.99,1.18-4.16,1.07l3.49-1.21c.49-.65,3.05-1.97-5.68.5l-5.92,2.21-2.01.41,5.06-1.64c-2.94.72-4.7,1.49-6.7,2.27-.52.04-1.39.23-2.6.57l-5.77,2.32c-.77.06,2.54-1.2-1.46-.02-2.7,1.09,2.78-.47-1.76,1.14-2.94.73-2.15.29-5.47,1.55-.51.04.18-.26,1.5-.75-2.96,1.11-7.93,2.62-9.41,3.35-3.08.72-10.12,3.33-9.96,2.82-.91.4-5.19,2.03-7.94,2.94,4.88-2.13-10.34,3.3-9.18,2.33-3.59,1.65-13.42,4.54-19.94,6.92.36-.15,1.06-.46,1.65-.63-3.73,1.16-4.86,1.37-7.28,2.06-.36.53-6.12,2.48-9.17,3.71-4.68,1.11,2.63-1.33,1.09-1.21.33.23-7.83,2.85-6.19,2.61-3.56.9-3.04.86-4.94,1.13-.46.66-3.22,1.13-6.02,2.34-5.12,1.4-1.44-.02-6.94,1.91-2.68.71,2.19-1.05,2.19-1.05Zm-136.34.58h0c1.19.08,2.2.15,2.85.2-.59-.04-1.42-.1-2.85-.2Zm-11.61-.89c1.41.11,3.17.25,5.03.4.4.13-.05.19-1.22.1.64-.02-2.09-.28-3.82-.5Zm24.4,3.84c-1.84-.1-2.45-.2-2.7-.28.87.06,1.88.13,3.22.21.05,0,.16-.01.22-.02-.18.04-.38.07-.74.08Z"/>
        <path class="cls-1" d="m468.35,120.03c.27.01.41.02.76.04-.37-.05-.73-.1-1.09-.15-.23.01-.46.03-.66.04.33.02.68.05.99.07Z"/>
        <path class="cls-1" d="m487.51,36.45h-.25c.2,0,.39,0,.52.01-.16,0-.17-.01-.27-.01Z"/>
        <polygon class="cls-1" points="280.38 103.41 280.39 103.48 281.41 103.49 280.38 103.41"/>
        <path class="cls-1" d="m551.53,32.82c.12.02.37.02.84.01-.04-.02-.4-.02-.84-.01Z"/>
        <path class="cls-1" d="m578.04,39.14l3.72,1.22c-1.61-.53-2.79-.91-3.72-1.22Z"/>
        <path class="cls-1" d="m598.41,45.36c.27.03.36.02.43,0-.02,0-.03,0-.04-.01h-.39Z"/>
        <path class="cls-1" d="m262.71,54.09c-.29.02-.57.05-.82.07-1.92.19-.61.08.82-.07Z"/>
        <path class="cls-1" d="m363.17,46.22c-1.06.12-2.11.24-3.22.36,1.79-.11,3.18-.2,3.22-.36Z"/>
        <path class="cls-1" d="m186.52,20.65s0,0,.01,0c-.22.01-.41.02-.63.04l.62-.03Z"/>
        <path class="cls-1" d="m355.27,46.91c1.79-.07,3.29-.19,4.67-.33-1.47.09-3.2.18-4.67.33Z"/>
        <path class="cls-1" d="m686.82,71.88l.98.3s.05-.02.13,0l-1.11-.3Z"/>
        <path class="cls-1" d="m687.93,72.17l1.1.29c-.5-.15-.94-.28-1.1-.29Z"/>
        <path class="cls-1" d="m691.35,73.08l-2.32-.62c.8.24,1.77.54,2.32.62Z"/>
        <path class="cls-1" d="m659.84,63.69h-.34c.17.04.29.04.34,0Z"/>
        <path class="cls-1" d="m651.62,61.27c1.95.61,4.85,1.67,7.6,2.43h.28c-1.33-.24-5.97-2.04-7.88-2.43Z"/>
        <path class="cls-1" d="m617.72,49.84l6.86,2.13c-1.17-.46-2.71-1.07.43-.17-8.58-2.9,1.72.77-7.28-1.96Z"/>
        <path class="cls-1" d="m596.43,43.32c3.71,1.05,0-.16.21-.16-2.37-.6-2.95-.75-.21.16Z"/>
        <path class="cls-1" d="m437.4,39.82l.37-.28c-2.96.25-.02.1-.37.28Z"/>
        <polygon class="cls-1" points="406.82 43.34 409.72 43.29 411.08 42.96 406.82 43.34"/>
        <polygon class="cls-1" points="388.57 42.82 389.87 42.69 384.93 43.14 388.57 42.82"/>
        <path class="cls-1" d="m167.94,42.36l.35-.92c.06-1.03.03-1.67-.06-1.62-.04.03-.1.22-.16.64-.07.41-.13,1.03-.12,1.91Z"/>
        <path class="cls-1" d="m77.52,57.53c-.09-.3-.24-.7-.42-1.16-.11-.26-.22-.53-.34-.82-.17-.4-.36-.82-.54-1.25-.49,0-.99,0-1.49-.01-.34,0-.67,0-1,0-.63,0-1.23.03-1.75.07,1.44.03,2.89.05,4.15.07.31.71.6,1.37.86,1.95.2.45.38.84.53,1.15Z"/>
        <polygon class="cls-1" points="249.34 103.55 247 103.47 251.41 103.72 249.34 103.55"/>
      </g>
    </g>
    <ellipse class="cls-4" cx="85.09" cy="78" rx="73" ry="65.5"/>
    <path class="cls-3" d="m83.84,61.02c-.99-1.22-2.88-3.2-5.95-4.78-1.26-.65-4.02-2.03-7.96-2.22-.76-.04-4.23-.16-8.2,1.45-1.39.57-4.89,2.03-7.39,5.47-2.12,2.91-2.45,5.78-2.64,7.43-.22,1.92-.06,3.48.05,4.53.07.7.34,2.89,1.3,5.64.39,1.11.79,2.03,1.1,2.71l1.25,1.99,2.73,3.29,2.83,2.65,2.97,2.6,4.08,3.25,4.8,3.59,4.61,3.67,4.03,3.25,3.7,2.9,1.96-1.62,2.88-2.48,4.13-2.99,12.38-9.56,4.32-4.01c1.81-1.57,4.47-4.32,6.14-8.28,1.06-2.51,1.62-5.3,1.63-7.09,0-.23,0-1.29,0-3.07,0-1.7.01-1.78,0-2.05-.1-1.85-.82-3.25-1.34-4.27-1.72-3.34-4.44-5.32-4.89-5.64-.77-.55-4.16-2.86-9.31-3.25-1.33-.1-4-.17-7.1.77-3.5,1.05-5.67,2.82-6.91,3.84-1.89,1.57-3.12,3.15-3.88,4.27l-1.3-1.96Z"/>
    <path class="cls-2" d="m144.98,35.29c-4.56,6.05-17.77,5.93-15.27,4.33,9.69-6.2,10.28-15.11,11.75-19.14.98-2.7,7.59,9.42,3.52,14.82Z"/>
    <path class="cls-2" d="m151.39,44.82c-5.6,5.14-18.57,2.67-15.82,1.54,10.67-4.38,12.89-13.03,15.08-16.74,1.46-2.48,5.73,10.62.74,15.2Z"/>
    <path class="cls-2" d="m139.46,133.33c-6.16-4.48-6.04-17.45-4.41-15,6.31,9.52,15.38,10.09,19.49,11.53,2.75.97-9.6,7.46-15.09,3.46Z"/>
    <path class="cls-2" d="m147.79,124.86c-6.9-3.28-9.22-16.05-7.16-13.94,8,8.2,17.02,7.12,21.33,7.79,2.89.45-8.03,9.07-14.18,6.14Z"/>
    <path class="cls-2" d="m154.46,115.33c-7.3-2.3-11.42-14.63-9.08-12.81,9.09,7.02,17.87,4.71,22.23,4.78,2.92.05-6.65,10.09-13.16,8.04Z"/>
    <path class="cls-2" d="m157.91,104.45c-7.54-1.32-13.31-13-10.74-11.51,9.96,5.77,18.35,2.32,22.68,1.82,2.9-.34-5.22,10.87-11.95,9.69Z"/>
    <path class="cls-2" d="m160.8,92.75c-7.64.61-16.25-9.22-13.38-8.43,11.13,3.07,18.34-2.36,22.4-3.94,2.72-1.05-2.22,11.82-9.03,12.37Z"/>
    <path class="cls-2" d="m161.25,79.43c-7.57,1.15-16.89-8.05-13.96-7.46,11.33,2.28,18.12-3.65,22.06-5.51,2.63-1.24-1.34,11.94-8.1,12.97Z"/>
    <path class="cls-2" d="m160.11,67.04c-7.22,2.52-18.12-4.81-15.13-4.77,11.57.16,17.11-6.92,20.62-9.47,2.35-1.71.96,11.98-5.48,14.23Z"/>
    <path class="cls-2" d="m157.49,55.7c-6.27,4.33-18.77.14-15.88-.61,11.18-2.9,14.59-11.17,17.28-14.55,1.8-2.26,4.19,11.29-1.4,15.15Z"/>
    <path class="cls-2" d="m135.25,28.42c-4.56,6.05-17.77,5.93-15.27,4.33,9.69-6.2,10.28-15.11,11.75-19.14.98-2.7,7.59,9.42,3.52,14.82Z"/>
    <path class="cls-2" d="m127.24,20.71c-3.49,6.7-16.54,8.72-14.34,6.74,8.52-7.68,7.6-16.56,8.37-20.78.52-2.83,9.07,8.07,5.96,14.04Z"/>
    <path class="cls-2" d="m115.43,15.51c-2.71,7.04-15.46,10.46-13.49,8.25,7.61-8.56,5.7-17.28,5.99-21.56.2-2.86,9.92,7.04,7.5,13.32Z"/>
    <path class="cls-2" d="m103.5,10.3c.16,7.52-10.36,15.37-9.38,12.6,3.8-10.73-1.29-18.12-2.65-22.2-.91-2.73,11.88,2.88,12.03,9.6Z"/>
    <path class="cls-2" d="m76.42,144.28c.87-7.48,12.37-13.86,11.02-11.25-5.23,10.13-1.2,18.13-.42,22.35.53,2.82-11.38-4.43-10.6-11.1Z"/>
    <path class="cls-2" d="m63.3,142.42c2.23-7.2,14.72-11.44,12.91-9.11-7.01,9.03-4.52,17.62-4.53,21.9,0,2.87-10.37-6.38-8.38-12.8Z"/>
    <path class="cls-2" d="m11.94,60.93c7.61.85,14.12,12.15,11.46,10.82-10.32-5.14-18.46-1.18-22.76-.41-2.88.52,4.51-11.17,11.3-10.41Z"/>
    <path class="cls-2" d="m11.76,73.37c7.64-.55,16.16,9.37,13.3,8.55-11.11-3.17-18.37,2.2-22.44,3.74-2.73,1.03,2.33-11.8,9.14-12.28Z"/>
    <path class="cls-2" d="m12.28,86.14c7.49-1.59,17.34,7.05,14.39,6.63-11.45-1.61-17.87,4.7-21.68,6.79-2.55,1.4.62-12,7.3-13.42Z"/>
    <path class="cls-2" d="m15.93,99.35c7.21-2.56,18.15,4.71,15.16,4.69-11.57-.1-17.07,7-20.57,9.57-2.34,1.72-1.02-11.98,5.41-14.26Z"/>
    <path class="cls-2" d="m20.83,111.27c6.3-4.28,18.77,0,15.88.73-11.21,2.81-14.68,11.06-17.39,14.42-1.82,2.25-4.1-11.32,1.52-15.14Z"/>
    <path class="cls-2" d="m30.12,120.99c5.97-4.72,18.72-1.33,15.89-.4-10.97,3.6-13.83,12.07-16.29,15.61-1.65,2.37-4.92-11,.4-15.21Z"/>
    <path class="cls-2" d="m39.3,129.88c4.97-5.73,18.14-4.74,15.53-3.31-10.09,5.55-11.29,14.39-13.03,18.33-1.17,2.63-6.93-9.9-2.5-15.02Z"/>
    <path class="cls-2" d="m50.45,138.54c3.22-6.83,16.18-9.35,14.06-7.28-8.21,8-6.94,16.84-7.55,21.09-.4,2.84-9.38-7.71-6.51-13.81Z"/>
    <path class="cls-2" d="m88.57,144.28c.87-7.48,12.37-13.86,11.02-11.25-5.23,10.13-1.2,18.13-.42,22.35.53,2.82-11.38-4.43-10.6-11.1Z"/>
    <path class="cls-2" d="m101.28,143.39c-.37-7.52,9.94-15.64,9.03-12.84-3.51,10.82,1.78,18.08,3.25,22.12.98,2.7-11.95-2.58-12.28-9.28Z"/>
    <path class="cls-2" d="m114.48,142.71c-2.32-7.17,5.51-17.62,5.37-14.69-.56,11.34,6.45,17.03,8.93,20.56,1.66,2.37-12.23.53-14.3-5.87Z"/>
    <path class="cls-2" d="m127.64,138.55c-4.61-6.01-.73-18.42.12-15.61,3.3,10.89,11.82,13.97,15.35,16.5,2.36,1.69-11.36,4.47-15.47-.9Z"/>
    <path class="cls-2" d="m18.07,49.02c7.09,2.86,10.22,15.46,8.02,13.47-8.5-7.7-17.44-6.07-21.78-6.48-2.91-.27,7.44-9.54,13.76-6.99Z"/>
    <path class="cls-2" d="m25.21,37.58c6.35,4.21,6.81,17.17,5.07,14.79-6.74-9.23-15.82-9.42-19.99-10.68-2.79-.85,9.25-7.86,14.92-4.11Z"/>
    <path class="cls-2" d="m34.03,26.68c5.99,4.69,5.41,17.65,3.87,15.14-5.97-9.73-15.01-10.62-19.07-12.2-2.72-1.06,9.86-7.12,15.2-2.94Z"/>
    <path class="cls-2" d="m45.94,19.88c4.49,6.1.38,18.43-.42,15.6-3.09-10.95-11.55-14.19-15.03-16.79-2.33-1.74,11.45-4.26,15.45,1.18Z"/>
    <path class="cls-2" d="m59.9,13.96c2.84,6.99-4.2,17.96-4.27,15.03-.28-11.35-7.69-16.52-10.42-19.87-1.83-2.24,12.16-1.4,14.69,4.84Z"/>
    <path class="cls-2" d="m76.06,12.36c.69,7.49-9.25,16.04-8.47,13.21,3.03-10.96-2.56-17.99-4.2-21.96-1.1-2.66,12.05,2.07,12.67,8.76Z"/>
    <path class="cls-2" d="m89.61,9.75c.69,7.49-9.25,16.04-8.47,13.21,3.03-10.96-2.56-17.99-4.2-21.96-1.1-2.66,12.05,2.07,12.67,8.76Z"/>
  </g>
</svg>