<?xml version="1.0" encoding="UTF-8"?>
<svg xmlns="http://www.w3.org/2000/svg" xmlns:xlink="http://www.w3.org/1999/xlink" viewBox="0 0 1097.59 240.14">
  <defs>
    <style>
      .cls-1 {
        fill: url(#Nueva_muestra_de_degradado_1-3);
      }

      .cls-2 {
        fill: #fff;
      }

      .cls-3 {
        stroke: #4f4d5e;
      }

      .cls-3, .cls-4, .cls-5, .cls-6, .cls-7 {
        stroke-miterlimit: 10;
      }

      .cls-3, .cls-5, .cls-6, .cls-7, .cls-8 {
        fill: none;
      }

      .cls-9 {
        fill: #4c4c4c;
      }

      .cls-10 {
        fill: #9c9c9c;
        stroke: #eaeaea;
      }

      .cls-10, .cls-8 {
        stroke-miterlimit: 1;
      }

      .cls-4 {
        fill: #3c3b44;
        stroke: #353342;
      }

      .cls-11 {
        isolation: isolate;
      }

      .cls-12 {
        fill: #c9c9c9;
      }

      .cls-5 {
        stroke: #4b4a51;
      }

      .cls-13 {
        opacity: .58;
      }

      .cls-14 {
        fill: url(#linear-gradient-5);
      }

      .cls-14, .cls-15, .cls-16, .cls-17, .cls-18 {
        mix-blend-mode: screen;
      }

      .cls-14, .cls-17 {
        opacity: .7;
      }

      .cls-19 {
        fill: #4e4d56;
      }

      .cls-15 {
        opacity: .49;
      }

      .cls-20 {
        fill: url(#Nueva_muestra_de_degradado_1-4);
      }

      .cls-6 {
        stroke: #504f56;
      }

      .cls-7 {
        stroke: #494949;
      }

      .cls-16 {
        fill: url(#linear-gradient-4);
      }

      .cls-16, .cls-18 {
        opacity: .51;
      }

      .cls-21 {
        fill: #4f4f4f;
      }

      .cls-22 {
        fill: url(#Nueva_muestra_de_degradado_1-2);
      }

      .cls-8 {
        stroke: #717171;
        stroke-width: .59px;
      }

      .cls-17 {
        fill: url(#linear-gradient-3);
      }

      .cls-18 {
        fill: url(#linear-gradient-2);
      }

      .cls-23 {
        fill: url(#linear-gradient);
      }

      .cls-24 {
        fill: url(#Nueva_muestra_de_degradado_1);
      }

      .cls-25 {
        fill: red;
      }
    </style>
    <linearGradient id="linear-gradient" x1="571.6" y1="94.85" x2="571.6" y2="33.85" gradientUnits="userSpaceOnUse">
      <stop offset="0" stop-color="#656565"/>
      <stop offset=".62" stop-color="#1b1b1b"/>
      <stop offset=".63" stop-color="#545454"/>
      <stop offset=".98" stop-color="#3e3e3e"/>
    </linearGradient>
    <linearGradient id="linear-gradient-2" x1="571.6" y1="94.85" x2="571.6" y2="33.85" gradientUnits="userSpaceOnUse">
      <stop offset="0" stop-color="#0e0e0e"/>
      <stop offset=".5" stop-color="#000"/>
      <stop offset=".52" stop-color="#010101"/>
      <stop offset=".73" stop-color="#0b0b0b"/>
      <stop offset="1" stop-color="#0e0e0e"/>
    </linearGradient>
    <linearGradient id="linear-gradient-3" x1="571.6" y1="33.85" x2="571.6" y2="94.85" gradientUnits="userSpaceOnUse">
      <stop offset="0" stop-color="#fff" stop-opacity=".77"/>
      <stop offset=".2" stop-color="#fff" stop-opacity=".65"/>
      <stop offset=".34" stop-color="#fff" stop-opacity=".65"/>
      <stop offset=".35" stop-color="#fff" stop-opacity=".65"/>
      <stop offset=".37" stop-color="#fff" stop-opacity=".62"/>
      <stop offset=".4" stop-color="#fff" stop-opacity=".53"/>
      <stop offset=".43" stop-color="#fff" stop-opacity=".39"/>
      <stop offset=".47" stop-color="#fff" stop-opacity=".2"/>
      <stop offset=".51" stop-color="#fff" stop-opacity="0"/>
      <stop offset=".59" stop-color="#7d7d7d" stop-opacity=".09"/>
      <stop offset="1" stop-color="#1b1b1b" stop-opacity=".16"/>
    </linearGradient>
    <linearGradient id="linear-gradient-4" x1="558.1" y1="239.85" x2="558.1" y2="192.85" xlink:href="#linear-gradient-2"/>
    <linearGradient id="linear-gradient-5" x1="558.1" y1="192.85" x2="558.1" y2="239.85" xlink:href="#linear-gradient-3"/>
    <linearGradient id="Nueva_muestra_de_degradado_1" data-name="Nueva muestra de degradado 1" x1="50.1" y1="64.08" x2="87.1" y2="64.08" gradientUnits="userSpaceOnUse">
      <stop offset="0" stop-color="#fff"/>
      <stop offset="1" stop-color="#000"/>
    </linearGradient>
    <linearGradient id="Nueva_muestra_de_degradado_1-2" data-name="Nueva muestra de degradado 1" x1="1058.97" y1="63.66" x2="1095.97" y2="63.66" gradientTransform="translate(2139.9) rotate(-180) scale(1 -1)" xlink:href="#Nueva_muestra_de_degradado_1"/>
    <linearGradient id="Nueva_muestra_de_degradado_1-3" data-name="Nueva muestra de degradado 1" x1="1514.09" y1="63.66" x2="1666.99" y2="63.66" gradientTransform="translate(1464.47) rotate(-180) scale(.24 -1)" xlink:href="#Nueva_muestra_de_degradado_1"/>
    <linearGradient id="Nueva_muestra_de_degradado_1-4" data-name="Nueva muestra de degradado 1" x1="67.72" y1="63.86" x2="104.72" y2="63.86" xlink:href="#Nueva_muestra_de_degradado_1"/>
  </defs>
  <g class="cls-11">
    <g id="Capa_2" data-name="Capa 2">
      <g id="Capa_2-2" data-name="Capa 2">
        <g>
          <rect class="cls-23" x="74.1" y="33.85" width="995" height="61"/>
          <rect class="cls-18" x="74.1" y="33.85" width="995" height="61"/>
          <rect class="cls-17" x="74.1" y="33.85" width="995" height="61"/>
          <g class="cls-15">
            <path d="m74.45,94.5c0-18.98,0-37.97,0-56.95,0-.58-.34-2.53,0-3,.41-.58-.31.25.06.02.18-.11.68.03.89,0,1.47-.19,3.09,0,4.57,0h52.87c32.57,0,65.14,0,97.72,0,43.16,0,86.32,0,129.48,0,49.36,0,98.72,0,148.08,0h515.48c14.37,0,28.9.62,43.26,0,.28-.01,2.26.12,1.88-.28.86.88,0,6.9,0,8.06v17.54c0,10.65,0,21.3,0,31.96,0,2.52.7,2.08-1.02,2.29-4.25.51-8.89,0-13.17,0h-26.81c-29.47,0-58.93,0-88.4,0H74.45s0,.73,0,.73h979.31c4.36,0,8.96.43,13.3,0,.55-.05,1.13,0,1.69,0,0,0,0-.36,0-.36v-60.29s0-.36,0-.36h-479.25c-48.3,0-96.6,0-144.89,0h-247.97c-27.27,0-54.54,0-81.81,0h-25.37c-4.36,0-8.96-.43-13.3,0-.55.05-1.13,0-1.69,0,0,0,0,.36,0,.36v60.29c0,.4,0,.42,0,0Z"/>
          </g>
          <rect class="cls-8" x="74.1" y="33.85" width="995" height="61"/>
          <g class="cls-13">
            <path d="m1069.1,94.79h-228.43c-47.49,0-94.98,0-142.47,0h-439.35c-35.62,0-71.23,0-106.85,0h-72.78c-1.1,0-3.3.44-4.33,0-1.52-.65-.79-2.11-.79-4.28,0-11.35,0-22.69,0-34.04v-16.21c0-.9-.59-5.77,0-6.35.24-.23,1.88,0,2.18,0h15.46c23.27,0,46.55,0,69.82,0,36.71,0,73.42,0,110.14,0,45.81,0,91.61,0,137.42,0,50.68,0,101.35,0,152.03,0h407.94c25.32,0,50.64,0,75.95,0h19.09c1.04,0,3.31-.45,4.26,0,1.5.7.69,3.41.69,5.42,0,18.51,0,37.01,0,55.52,0,.07,0,.07,0,0v-61s0-.06,0-.06h-26.79c-24.09,0-48.18,0-72.27,0H89.09c-4.35,0-8.98-.45-13.31,0-.55.06-1.14,0-1.69,0,0,0,0,.06,0,.06v61s0,.06,0,.06h954.61c12.86,0,25.84.51,38.7,0,.56-.02,1.13,0,1.69,0,0,0,0-.12,0-.12Z"/>
          </g>
        </g>
        <g>
          <rect class="cls-25" x="72.1" y="192.85" width="972" height="47"/>
          <rect class="cls-16" x="72.1" y="192.85" width="972" height="47"/>
          <rect class="cls-14" x="72.1" y="192.85" width="972" height="47"/>
          <g class="cls-15">
            <path class="cls-2" d="m72.45,239.5c0-8.52,0-17.04,0-25.55v-16.17c0-.95-.41-3.07,0-3.93.34-.73-.11-.18.04-.28,1.52-.95,6.74,0,8.45,0h153.6c42.39,0,84.77,0,127.16,0h144.04c49.32,0,98.64,0,147.96,0h346.81c13.76,0,27.69.64,41.44,0,.31-.01,2.15.12,1.79-.26,1.01,1.06,0,7.97,0,9.41v33.07c0,.59.37,2.88,0,3.38s.22-.21-.07-.04c-.49.29-2.06,0-2.61,0H72.45s0,.73,0,.73h956.65c4.25,0,8.75.42,12.99,0,.54-.05,1.11,0,1.65,0,0,0,0-.36,0-.36v-46.29s0-.36,0-.36H87.09c-4.25,0-8.75-.42-12.99,0-.54.05-1.11,0-1.65,0,0,0,0,.36,0,.36v46.29c0,.4,0,.42,0,0Z"/>
          </g>
          <rect class="cls-8" x="72.1" y="192.85" width="972" height="47"/>
          <g class="cls-13">
            <path d="m1044.1,239.79h-28.63c-25.62,0-51.23,0-76.85,0h-397.53c-48.77,0-97.55,0-146.32,0h-132.01c-35.46,0-70.91,0-106.37,0-22.3,0-44.61,0-66.91,0h-15.14c-.32,0-1.97.24-2.22,0-.55-.52-.02-4.88-.02-5.72,0-5.58,0-11.17,0-16.75v-17.3c0-1.04-.69-6.43,0-7.1.22-.22,1.74,0,2.03,0h81.39c35.22,0,70.44,0,105.66,0,43.91,0,87.83,0,131.74,0,48.9,0,97.81,0,146.71,0h284.23c37.83,0,75.66,0,113.49,0h98.94c1.1,0,6.95-.83,7.8,0,.63.62,0,5.45,0,6.4v16.56c0,7.99,0,15.99,0,23.98,0,.07,0,.07,0,0v-47s0-.06,0-.06h-26.18c-23.53,0-47.06,0-70.6,0H86.75c-4.28,0-8.74-.37-13,0-.54.05-1.11,0-1.65,0,0,0,0,.06,0,.06v47s0,.06,0,.06h741.32c37.08,0,74.16,0,111.24,0,26.66,0,53.32,0,79.98,0,12.56,0,25.25.51,37.8,0,.55-.02,1.1,0,1.65,0,0,0,0-.12,0-.12Z"/>
          </g>
        </g>
        <g>
          <polygon class="cls-24" points="86.72 19.85 50.1 63.85 87.1 108.31 87.1 96.76 60.31 64.58 86.55 33.04 86.72 19.85"/>
          <path class="cls-12" d="m86.36,19.49c-1.21,1.46-2.42,2.91-3.64,4.37-2.91,3.5-5.82,7-8.73,10.49l-10.57,12.7-9.18,11.02c-1.48,1.77-3.03,3.51-4.44,5.33-.02.03-.04.05-.06.07-.19.22-.19.48,0,.71,1.23,1.48,2.46,2.96,3.7,4.44,2.94,3.54,5.89,7.07,8.83,10.61l10.68,12.83c3.08,3.7,6.15,7.4,9.23,11.09l3.05,3.67c.47.57.92,1.21,1.44,1.73.02.02.04.05.07.08.29.34.85.05.85-.35v-11.26c0-.62-.42-.97-.8-1.43l-2.63-3.15c-2.96-3.55-5.92-7.11-8.87-10.66-3.15-3.79-6.31-7.58-9.46-11.37l-3.41-4.1c-.54-.64-1.05-1.46-1.68-2.02-.03-.02-.05-.06-.07-.09v.71c1.46-1.76,2.93-3.52,4.39-5.27,3.16-3.8,6.33-7.6,9.49-11.4s6.04-7.25,9.05-10.88l2.68-3.22c.19-.23.39-.45.57-.69.19-.26.21-.47.21-.78l.15-12.47v-.37c.01-.64-.99-.64-1,0-.05,3.85-.1,7.71-.14,11.56,0,.55-.01,1.09-.02,1.64l.15-.35c-2.97,3.57-5.94,7.14-8.92,10.71-4.7,5.65-9.4,11.29-14.1,16.94-1.08,1.29-2.15,2.58-3.23,3.88-.19.22-.19.48,0,.71,3.04,3.65,6.07,7.3,9.11,10.94,4.8,5.77,9.6,11.53,14.4,17.3,1.09,1.31,2.19,2.63,3.28,3.94l-.15-.35v11.54l.85-.35c-1.23-1.48-2.46-2.96-3.7-4.44l-8.83-10.61c-3.56-4.28-7.12-8.55-10.68-12.83-3.08-3.7-6.15-7.4-9.23-11.09l-3.05-3.67c-.46-.55-.9-1.27-1.44-1.73-.02-.02-.04-.05-.07-.08v.71c1.21-1.46,2.42-2.91,3.64-4.37l8.73-10.49,10.57-12.7,9.18-11.02c1.48-1.77,3.03-3.51,4.44-5.33.02-.03.04-.05.06-.07.41-.49-.29-1.2-.71-.71Z"/>
        </g>
        <g>
          <polygon class="cls-22" points="1041.38 19.44 1078.1 63.44 1041 107.89 1041 96.35 1067.86 64.16 1041.54 32.63 1041.38 19.44"/>
          <path class="cls-12" d="m1041.02,19.79c1.22,1.46,2.44,2.92,3.66,4.39,2.92,3.5,5.83,6.99,8.75,10.49,3.54,4.24,7.08,8.49,10.62,12.73,3.05,3.66,6.1,7.31,9.15,10.97l3.02,3.62c.46.55.9,1.27,1.45,1.73.02.02.04.05.06.07v-.71c-1.24,1.48-2.47,2.96-3.71,4.44l-8.86,10.61c-3.57,4.28-7.14,8.55-10.71,12.83-3.09,3.7-6.17,7.4-9.26,11.09l-3.06,3.67c-.45.54-1.1,1.11-1.45,1.73-.02.03-.04.05-.07.08l.85.35v-11.54l-.15.35c3.03-3.64,6.07-7.27,9.1-10.91,4.81-5.76,9.61-11.52,14.42-17.28,1.11-1.33,2.22-2.66,3.33-4,.19-.22.19-.48,0-.71-2.98-3.57-5.96-7.14-8.94-10.71-4.71-5.65-9.42-11.29-14.14-16.94-1.08-1.29-2.16-2.58-3.24-3.88l.15.35c-.05-3.85-.1-7.71-.14-11.56,0-.55-.01-1.09-.02-1.64,0-.64-1.01-.64-1,0,.05,3.96.1,7.92.15,11.89,0,.43-.1,1.02.03,1.44.06.2.28.4.41.56l2.22,2.67,8.66,10.37c3.25,3.9,6.51,7.8,9.76,11.7l3.54,4.24c.57.68,1.11,1.53,1.77,2.12.03.03.05.07.08.1v-.71c-1.4,1.68-2.8,3.35-4.2,5.03-3.08,3.69-6.16,7.38-9.23,11.06l-9.23,11.06-3.04,3.65c-.38.46-.89.92-1.19,1.43-.24.42-.11,1.14-.11,1.6v10.24c0,.4.57.7.85.35,1.24-1.48,2.47-2.96,3.71-4.44,2.95-3.54,5.9-7.07,8.86-10.61,3.57-4.28,7.14-8.55,10.71-12.83,3.09-3.7,6.17-7.4,9.26-11.09,1.5-1.8,3.08-3.55,4.51-5.4.02-.03.04-.05.07-.08.19-.22.19-.48,0-.71-1.22-1.46-2.44-2.92-3.66-4.39-2.92-3.5-5.83-6.99-8.75-10.49-3.54-4.24-7.08-8.49-10.62-12.73l-9.15-10.97-3.02-3.62c-.47-.57-.92-1.21-1.45-1.73-.02-.02-.04-.05-.06-.07-.41-.49-1.12.22-.71.71Z"/>
        </g>
        <g>
          <polygon class="cls-1" points="1060.38 19.44 1097.1 63.44 1060 107.89 1060 96.35 1086.86 64.16 1060.54 32.63 1060.38 19.44"/>
          <path class="cls-12" d="m1060.02,19.79c1.22,1.46,2.44,2.92,3.66,4.39,2.92,3.5,5.83,6.99,8.75,10.49,3.54,4.24,7.08,8.49,10.62,12.73,3.05,3.66,6.1,7.31,9.15,10.97l3.02,3.62c.46.55.9,1.27,1.45,1.73.02.02.04.05.06.07v-.71c-1.24,1.48-2.47,2.96-3.71,4.44l-8.86,10.61c-3.57,4.28-7.14,8.55-10.71,12.83-3.09,3.7-6.17,7.4-9.26,11.09l-3.06,3.67c-.45.54-1.1,1.11-1.45,1.73-.02.03-.04.05-.07.08l.85.35v-11.54l-.15.35c3.03-3.64,6.07-7.27,9.1-10.91,4.81-5.76,9.61-11.52,14.42-17.28,1.11-1.33,2.22-2.66,3.33-4,.19-.22.19-.48,0-.71-2.98-3.57-5.96-7.14-8.94-10.71-4.71-5.65-9.42-11.29-14.14-16.94-1.08-1.29-2.16-2.58-3.24-3.88l.15.35c-.05-3.85-.1-7.71-.14-11.56,0-.55-.01-1.09-.02-1.64,0-.64-1.01-.64-1,0,.05,3.96.1,7.92.15,11.89,0,.43-.1,1.02.03,1.44.06.2.28.4.41.56l2.22,2.67,8.66,10.37c3.25,3.9,6.51,7.8,9.76,11.7l3.54,4.24c.57.68,1.11,1.53,1.77,2.12.03.03.05.07.08.1v-.71c-1.4,1.68-2.8,3.35-4.2,5.03-3.08,3.69-6.16,7.38-9.23,11.06l-9.23,11.06-3.04,3.65c-.38.46-.89.92-1.19,1.43-.24.42-.11,1.14-.11,1.6v10.24c0,.4.57.7.85.35,1.24-1.48,2.47-2.96,3.71-4.44,2.95-3.54,5.9-7.07,8.86-10.61,3.57-4.28,7.14-8.55,10.71-12.83,3.09-3.7,6.17-7.4,9.26-11.09,1.5-1.8,3.08-3.55,4.51-5.4.02-.03.04-.05.07-.08.19-.22.19-.48,0-.71-1.22-1.46-2.44-2.92-3.66-4.39-2.92-3.5-5.83-6.99-8.75-10.49-3.54-4.24-7.08-8.49-10.62-12.73l-9.15-10.97-3.02-3.62c-.47-.57-.92-1.21-1.45-1.73-.02-.02-.04-.05-.06-.07-.41-.49-1.12.22-.71.71Z"/>
        </g>
        <g>
          <polygon class="cls-20" points="104.34 19.63 67.72 63.63 104.72 108.08 104.72 96.54 77.93 64.36 104.18 32.82 104.34 19.63"/>
          <path class="cls-12" d="m103.99,19.27c-1.21,1.46-2.42,2.91-3.64,4.37l-8.73,10.49-10.57,12.7-9.18,11.02c-1.48,1.77-3.03,3.51-4.44,5.33-.02.03-.04.05-.06.07-.19.22-.19.48,0,.71,1.23,1.48,2.46,2.96,3.7,4.44,2.94,3.54,5.89,7.07,8.83,10.61l10.68,12.83c3.08,3.7,6.15,7.4,9.23,11.09l3.05,3.67c.47.57.92,1.21,1.44,1.73.02.02.04.05.07.08.29.34.85.05.85-.35v-11.26c0-.62-.42-.97-.8-1.43l-2.63-3.15-8.87-10.66c-3.15-3.79-6.31-7.58-9.46-11.37l-3.41-4.1c-.54-.64-1.05-1.46-1.68-2.02-.03-.02-.05-.06-.07-.09v.71c1.46-1.76,2.93-3.52,4.39-5.27,3.16-3.8,6.33-7.6,9.49-11.4s6.04-7.25,9.05-10.88l2.68-3.22c.19-.23.39-.45.57-.69.19-.26.21-.47.21-.78l.15-12.47v-.37c.01-.64-.99-.64-1,0-.05,3.85-.1,7.71-.14,11.56,0,.55-.01,1.09-.02,1.64l.15-.35c-2.97,3.57-5.94,7.14-8.92,10.71-4.7,5.65-9.4,11.29-14.1,16.94-1.08,1.29-2.15,2.58-3.23,3.88-.19.22-.19.48,0,.71,3.04,3.65,6.07,7.3,9.11,10.94,4.8,5.77,9.6,11.53,14.4,17.3,1.09,1.31,2.19,2.63,3.28,3.94l-.15-.35v11.54l.85-.35c-1.23-1.48-2.46-2.96-3.7-4.44l-8.83-10.61c-3.56-4.28-7.12-8.55-10.68-12.83-3.08-3.7-6.15-7.4-9.23-11.09l-3.05-3.67c-.46-.55-.9-1.27-1.44-1.73-.02-.02-.04-.05-.07-.08v.71c1.21-1.46,2.42-2.91,3.64-4.37l8.73-10.49,10.57-12.7,9.18-11.02c1.48-1.77,3.03-3.51,4.44-5.33.02-.03.04-.05.06-.07.41-.49-.29-1.2-.71-.71Z"/>
        </g>
      </g>
      <g id="Capa_1-2" data-name="Capa 1">
        <ellipse class="cls-10" cx="69" cy="65.65" rx="66.56" ry="64.42"/>
        <path class="cls-6" d="m65.44,9.14c-3.44.07-12.39.36-22.05,4.91-2.83,1.33-4.95,2.67-6.28,3.52-2.85,1.82-9.44,6.08-15.43,13.66-6.95,8.79-9.57,17.54-10.58,21.87-3.44,14.67.17,26.41,1.1,29.23.99,2.99,5.52,15.8,18.74,26.14,10.84,8.47,21.82,10.84,25.58,11.52,3.03.55,14.66,2.41,28.55-1.92,10.43-3.25,17.19-8.44,19.29-10.14,3.03-2.44,10.59-9.05,15.65-20.27,1.14-2.52,5.22-12.08,4.74-25.07-.15-3.97-.54-12.21-5.07-21.55-6.45-13.29-17.04-20.06-21.17-22.62-4.9-3.04-17.07-9.63-33.07-9.28Z"/>
        <path class="cls-5" d="m21.32,46.48c.77-1.74,3.47-7.5,9.17-13.34,1.64-1.68,7.17-7.1,16.21-10.99,3.88-1.67,15.01-6.29,29.33-3.84,3.14.54,19.37,3.63,30.54,18.25,1.45,1.89,8.5,11.44,9.37,25.71.89,14.7-5.33,25.22-6.61,27.31-7.72,12.59-19.23,17.78-23.04,19.31-18.45,7.43-34.99,1.03-38.03-.21-2.94-1.2-17.87-7.61-25.8-24.11-.9-1.87-9.2-19.88-1.13-38.09Z"/>
        <path class="cls-3" d="m31.59,57.05c1.32-6.02,3.67-9.93,4.19-10.78,1.28-2.09,2.51-3.53,2.87-3.95,3.25-3.77,6.67-5.77,9.26-7.26,1.96-1.13,5.41-3.07,10.36-4.37,3.26-.86,9.82-2.5,17.75-.53,4.85,1.21,8.1,3.27,10.69,4.91,3.23,2.04,7.85,5.03,11.36,10.56,2.4,3.78,3.18,7.01,4.19,11.2,1.25,5.18,2.45,10.12,1.1,16.32-1.13,5.24-3.53,8.84-5.07,11.1-4.51,6.63-9.98,10.01-11.47,10.88-4.55,2.69-8.55,3.68-11.02,4.27-3.7.88-9.74,2.26-17.2.64-5.59-1.21-9.4-3.55-11.25-4.69-6.45-4.03-9.92-8.93-11.13-10.78-1.19-1.81-3.59-5.84-4.85-11.52-1.62-7.31-.41-13.13.22-16Z"/>
        <polygon class="cls-9" points="67.09 65.36 59.09 72.62 67.09 127.47 67.09 65.36"/>
        <polygon class="cls-9" points="67.09 .07 67.09 65.36 75.9 56.83 67.09 .07"/>
        <polygon class="cls-9" points=".06 65.36 59.09 57.05 67.09 65.36 .06 65.36"/>
        <polygon class="cls-9" points="133.46 65.36 67.09 65.36 75.9 72.62 133.46 65.36"/>
        <polygon class="cls-9" points="28.16 102.23 51.75 71.72 58.97 72.79 28.16 102.23"/>
        <polygon class="cls-9" points="54.41 83.3 49.89 105.06 61.42 88.56 60.96 85.42 55.65 91.4 58.05 80.95 54.41 83.3"/>
        <polygon class="cls-9" points="47.3 58.71 41.48 54.7 49.89 56.7 52.49 57.98 48.13 53.42 24.76 48.08 43.69 58.71 47.3 58.71"/>
        <polygon class="cls-9" points="58.88 56.51 60.19 49.58 28.28 27.38 58.88 56.51"/>
        <polygon class="cls-9" points="49.78 23.68 61.25 41.71 60.67 45.47 56.7 39.39 58.04 48.08 54.18 45.39 49.78 23.68"/>
        <polygon class="cls-9" points="76.26 56.8 105.95 27.6 86.77 52.72 82.74 57.77 76.26 56.8"/>
        <polygon class="cls-9" points="83.73 56.53 93.88 54.32 87.66 58.5 91.29 59.05 109.98 48.08 86.23 53.39 83.73 56.53"/>
        <polygon class="cls-9" points="74.1 45.24 78.2 38.99 75.47 50.19 80.1 46.75 84.51 23.68 73.44 40.94 74.1 45.24"/>
        <polygon class="cls-9" points="75.9 72.62 105.57 102.07 74.93 80.2 75.9 72.62"/>
        <polygon class="cls-9" points="76.13 81.59 78.45 90.71 73.92 84.68 73.25 89.16 84.51 106.02 79.91 83.75 76.13 81.59"/>
        <polygon class="cls-9" points="82.81 72.62 86.72 77.68 109.42 82.12 91.51 70.65 87.49 71.56 95.09 76.39 82.81 72.62"/>
        <polygon class="cls-19" points="28.28 40.61 21.32 31.68 17.7 36.93 28.28 40.61"/>
        <polygon class="cls-19" points="12.1 49.37 22.22 54.38 10.55 55.66 12.1 49.37"/>
        <line class="cls-4" x1="41.48" y1="48.62" x2="34.24" y2="44.35"/>
        <path class="cls-4" d="m31.48,42.21c.48-.5,1.34-.48,1.9-.15.72.43,1.1,1.48.58,2.16-.48.62-1.51.66-2.15.2-.71-.51-.91-1.61-.33-2.21Z"/>
        <polygon class="cls-19" points="11.65 80.57 22.66 75.18 10.55 74.12 11.65 80.57"/>
        <polygon class="cls-19" points="17.31 93.2 28.72 88.68 20.95 98.47 17.31 93.2"/>
        <polygon class="cls-19" points="33.18 109.89 42.45 101.75 38.78 113.47 33.18 109.89"/>
        <polygon class="cls-19" points="50.32 118.26 56.78 107.35 57.55 120.12 50.32 118.26"/>
        <polygon class="cls-19" points="77.29 118.4 77.78 107.51 84.06 118.27 77.29 119.66 77.29 118.4"/>
        <polygon class="cls-19" points="95.6 113.38 91.34 101.7 101.89 109.67 95.6 113.38"/>
        <polygon class="cls-19" points="113.2 98.55 104.68 89.16 116.95 93 113.2 98.55"/>
        <polygon class="cls-19" points="123.9 74.01 111.57 74.01 122.7 79.62 123.9 74.01"/>
        <polygon class="cls-19" points="123.86 55.43 110.91 54.7 122.49 48.58 123.86 55.43"/>
        <polygon class="cls-19" points="117.01 36.47 104.85 40.67 113.05 30.91 117.01 36.47"/>
        <polygon class="cls-19" points="100.74 20.16 91.79 27.92 95.1 16.83 100.74 20.16"/>
        <polygon class="cls-19" points="84.77 12.05 77.84 22.48 77.16 10.38 84.77 12.05"/>
        <polygon class="cls-19" points="57.38 9.81 56.95 21.41 49.89 11.82 57.38 9.81"/>
        <polygon class="cls-19" points="39 16.39 42.06 26.96 32.93 20.78 39 16.39"/>
        <polygon class="cls-21" points="42.45 70.65 24.76 81.59 47.4 77.34 49.89 73.69 39.53 75.5 47.39 71.18 43.06 70.65 42.45 70.65"/>
        <line class="cls-4" x1="37.32" y1="57.9" x2="29.28" y2="56.41"/>
        <line class="cls-4" x1="49.89" y1="39.01" x2="45.7" y2="32.71"/>
        <line class="cls-4" x1="60.19" y1="34.75" x2="58.16" y2="27.92"/>
        <line class="cls-7" x1="28.28" y1="27.38" x2="52.49" y2="57.98"/>
        <line class="cls-7" x1=".06" y1="65.36" x2="59.09" y2="72.62"/>
        <line class="cls-7" x1="28.28" y1="102.07" x2="60.06" y2="79.24"/>
        <line class="cls-7" x1="75.9" y1="72.62" x2="67.09" y2="127.47"/>
        <line class="cls-7" x1="82.19" y1="71.83" x2="105.57" y2="102.07"/>
        <line class="cls-7" x1="76.13" y1="56.78" x2="133.46" y2="65.36"/>
        <line class="cls-7" x1="74.93" y1="50.57" x2="105.95" y2="27.6"/>
        <line class="cls-7" x1="67.09" y1=".07" x2="59.09" y2="57.05"/>
        <line class="cls-4" x1="29.28" y1="73.69" x2="37.32" y2="71.83"/>
        <line class="cls-4" x1="34.2" y1="86.28" x2="40.38" y2="81.59"/>
        <line class="cls-4" x1="50.66" y1="90.71" x2="46.14" y2="97.7"/>
        <line class="cls-4" x1="59.18" y1="95.03" x2="58.16" y2="102.71"/>
        <line class="cls-4" x1="74.93" y1="95.03" x2="76.13" y2="102.71"/>
        <line class="cls-4" x1="83.96" y1="91.3" x2="88.81" y2="97.91"/>
        <line class="cls-4" x1="93.88" y1="81.59" x2="100.27" y2="86.28"/>
        <line class="cls-4" x1="97.85" y1="71.56" x2="104.68" y2="73.69"/>
        <line class="cls-4" x1="97.85" y1="57.15" x2="105.57" y2="55.66"/>
        <line class="cls-4" x1="93.88" y1="48.08" x2="100.27" y2="43.28"/>
        <line class="cls-4" x1="84.51" y1="38.37" x2="88.26" y2="32.71"/>
        <line class="cls-4" x1="74.93" y1="34.75" x2="77.07" y2="26.96"/>
        <path class="cls-4" d="m26.97,73.05c.48-.5,1.34-.48,1.9-.15.72.43,1.1,1.48.58,2.16-.48.62-1.51.66-2.15.2-.71-.51-.91-1.61-.33-2.21Z"/>
        <path class="cls-4" d="m26.55,55.17c.48-.5,1.34-.48,1.9-.15.72.43,1.1,1.48.58,2.16-.48.62-1.51.66-2.15.2-.71-.51-.91-1.61-.33-2.21Z"/>
        <path class="cls-4" d="m43.5,30.42c.48-.5,1.34-.48,1.9-.15.72.43,1.1,1.48.58,2.16-.48.62-1.51.66-2.15.2-.71-.51-.91-1.61-.33-2.21Z"/>
        <path class="cls-4" d="m56.45,25.39c.48-.5,1.34-.48,1.9-.15.72.43,1.1,1.48.58,2.16-.48.62-1.51.66-2.15.2-.71-.51-.91-1.61-.33-2.21Z"/>
        <g>
          <path class="cls-9" d="m19.14,61.18c-1.53-.42-3.17.05-4.19,1.1-1.57,1.62-1.39,4.39.22,5.98,1.31,1.29,3.64,1.87,5.4.75,1.75-1.11,1.99-3.31,1.54-4.8-.09-.3-.76-2.42-2.98-3.02Z"/>
          <path class="cls-9" d="m25.21,61.22c-2.03,2.89-1.71,7.42,1.1,9.5,1.77,1.31,3.92,1.19,4.69,1.11v-13.7h-.39c-.7.1-3.65.61-5.4,3.09Z"/>
          <path class="cls-9" d="m66.03,109.1c-.31.09-2.48.77-3.07,2.93-.41,1.48.1,3.07,1.2,4.04,1.7,1.49,4.56,1.28,6.17-.31,1.31-1.29,1.87-3.55.69-5.24-1.18-1.67-3.45-1.87-4.98-1.42Z"/>
          <path class="cls-9" d="m59.6,100.6v.38c.12.68.69,3.53,3.29,5.18,3.02,1.92,7.69,1.54,9.79-1.22,1.33-1.74,1.17-3.81,1.07-4.56l-14.15.22Z"/>
          <path class="cls-9" d="m118.98,62.25c-1.32-1.28-3.66-1.84-5.41-.7-1.74,1.13-1.96,3.32-1.5,4.81.09.3.78,2.41,3,2.99,1.53.4,3.17-.08,4.18-1.13,1.55-1.63,1.35-4.4-.27-5.97Z"/>
          <path class="cls-9" d="m107.82,59.89c-1.79-1.29-3.93-1.15-4.7-1.07l.12,13.7h.39c.7-.11,3.65-.64,5.37-3.14,2.01-2.91,1.64-7.43-1.19-9.49Z"/>
          <path class="cls-9" d="m68.45,20.89c.31-.09,2.49-.76,3.09-2.91.41-1.48-.09-3.07-1.18-4.04-1.69-1.5-4.55-1.3-6.17.28-1.32,1.28-1.89,3.55-.71,5.24,1.17,1.68,3.44,1.89,4.98,1.44Z"/>
          <path class="cls-9" d="m71.57,23.85c-3.01-1.94-7.68-1.58-9.8,1.17-1.33,1.73-1.19,3.81-1.09,4.55l14.15-.15v-.38c-.12-.68-.67-3.53-3.26-5.19Z"/>
        </g>
        <path class="cls-4" d="m87.72,30.61c.48-.5,1.34-.48,1.9-.15.72.43,1.1,1.48.58,2.16-.48.62-1.51.66-2.15.2-.71-.51-.91-1.61-.33-2.21Z"/>
        <path class="cls-4" d="m76.24,24.75c.48-.5,1.34-.48,1.9-.15.72.43,1.1,1.48.58,2.16-.48.62-1.51.66-2.15.2-.71-.51-.91-1.61-.33-2.21Z"/>
        <path class="cls-4" d="m100.07,41.47c.48-.5,1.34-.48,1.9-.15.72.43,1.1,1.48.58,2.16-.48.62-1.51.66-2.15.2-.71-.51-.91-1.61-.33-2.21Z"/>
        <path class="cls-4" d="m105.6,54.27c.48-.5,1.34-.48,1.9-.15.72.43,1.1,1.48.58,2.16-.48.62-1.51.66-2.15.2-.71-.51-.91-1.61-.33-2.21Z"/>
        <path class="cls-4" d="m100.21,85.88c.48-.5,1.34-.48,1.9-.15.72.43,1.1,1.48.58,2.16-.48.62-1.51.66-2.15.2-.71-.51-.91-1.61-.33-2.21Z"/>
        <path class="cls-4" d="m105.02,73.01c.48-.5,1.34-.48,1.9-.15.72.43,1.1,1.48.58,2.16-.48.62-1.51.66-2.15.2-.71-.51-.91-1.61-.33-2.21Z"/>
        <path class="cls-4" d="m88.34,97.8c.48-.5,1.34-.48,1.9-.15.72.43,1.1,1.48.58,2.16-.48.62-1.51.66-2.15.2-.71-.51-.91-1.61-.33-2.21Z"/>
        <path class="cls-4" d="m75.41,102.95c.48-.5,1.34-.48,1.9-.15.72.43,1.1,1.48.58,2.16-.48.62-1.51.66-2.15.2-.71-.51-.91-1.61-.33-2.21Z"/>
        <path class="cls-4" d="m44.36,97.66c.48-.5,1.34-.48,1.9-.15.72.43,1.1,1.48.58,2.16-.48.62-1.51.66-2.15.2-.71-.51-.91-1.61-.33-2.21Z"/>
        <path class="cls-4" d="m56.78,102.97c.48-.5,1.34-.48,1.9-.15.72.43,1.1,1.48.58,2.16-.48.62-1.51.66-2.15.2-.71-.51-.91-1.61-.33-2.21Z"/>
        <path class="cls-4" d="m32.11,85.91c.48-.5,1.34-.48,1.9-.15.72.43,1.1,1.48.58,2.16-.48.62-1.51.66-2.15.2-.71-.51-.91-1.61-.33-2.21Z"/>
      </g>
    </g>
  </g>
</svg>